<svg width="1024" height="753" viewBox="0 0 1024 753" fill="none" xmlns="http://www.w3.org/2000/svg">
<g clip-path="url(#clip0_122_130)">
<rect width="1024" height="753" fill="#121214"/>
<g opacity="0.2" filter="url(#filter0_f_122_130)">
<ellipse cx="1255.5" cy="-87" rx="670.5" ry="350" fill="#338AF3"/>
</g>
<path d="M776.035 149C777.53 149 778.662 149.63 779.431 150.891C780.213 152.138 780.605 153.953 780.605 156.336C780.605 158.719 780.213 160.541 779.431 161.802C778.662 163.063 777.53 163.693 776.035 163.693C774.554 163.693 773.422 163.063 772.639 161.802C771.856 160.541 771.465 158.719 771.465 156.336C771.465 153.967 771.856 152.152 772.639 150.891C773.422 149.63 774.554 149 776.035 149ZM772.953 156.336C772.953 158.026 773.107 159.35 773.415 160.306L778.068 151.099C777.579 150.448 776.901 150.122 776.035 150.122C775.071 150.122 774.316 150.635 773.771 151.66C773.226 152.672 772.953 154.23 772.953 156.336ZM776.035 162.55C777.013 162.55 777.775 162.044 778.32 161.033C778.865 160.008 779.137 158.442 779.137 156.336C779.137 154.549 778.963 153.163 778.613 152.18L773.96 161.469C774.463 162.19 775.154 162.55 776.035 162.55Z" fill="url(#paint0_linear_122_130)" fill-opacity="0.6"/>
<path d="M777.293 186.135H780.374V187.236H772.387V186.135H775.951V174.455L772.555 176.471L771.968 175.536L776.161 172.959H777.293V186.135Z" fill="url(#paint1_linear_122_130)" fill-opacity="0.6"/>
<path d="M776.035 196.502C777.53 196.502 778.662 197.133 779.431 198.393C780.213 199.64 780.605 201.455 780.605 203.838C780.605 206.221 780.213 208.043 779.431 209.304C778.662 210.565 777.53 211.195 776.035 211.195C774.554 211.195 773.422 210.565 772.639 209.304C771.856 208.043 771.465 206.221 771.465 203.838C771.465 201.469 771.856 199.654 772.639 198.393C773.422 197.133 774.554 196.502 776.035 196.502ZM772.953 203.838C772.953 205.529 773.107 206.852 773.415 207.808L778.068 198.601C777.579 197.95 776.901 197.624 776.035 197.624C775.071 197.624 774.316 198.137 773.771 199.162C773.226 200.174 772.953 201.732 772.953 203.838ZM776.035 210.052C777.013 210.052 777.775 209.546 778.32 208.535C778.865 207.51 779.137 205.944 779.137 203.838C779.137 202.051 778.963 200.665 778.613 199.682L773.96 208.971C774.463 209.692 775.154 210.052 776.035 210.052Z" fill="url(#paint2_linear_122_130)" fill-opacity="0.6"/>
<path d="M777.293 233.637H780.374V234.738H772.387V233.637H775.951V221.957L772.555 223.973L771.968 223.038L776.161 220.461H777.293V233.637Z" fill="url(#paint3_linear_122_130)" fill-opacity="0.6"/>
<path d="M777.293 257.388H780.374V258.489H772.387V257.388H775.951V245.708L772.555 247.724L771.968 246.789L776.161 244.212H777.293V257.388Z" fill="url(#paint4_linear_122_130)" fill-opacity="0.6"/>
<path d="M776.035 267.755C777.53 267.755 778.662 268.386 779.431 269.646C780.213 270.893 780.605 272.708 780.605 275.091C780.605 277.474 780.213 279.296 779.431 280.557C778.662 281.818 777.53 282.448 776.035 282.448C774.554 282.448 773.422 281.818 772.639 280.557C771.856 279.296 771.465 277.474 771.465 275.091C771.465 272.722 771.856 270.907 772.639 269.646C773.422 268.386 774.554 267.755 776.035 267.755ZM772.953 275.091C772.953 276.782 773.107 278.105 773.415 279.061L778.068 269.854C777.579 269.203 776.901 268.878 776.035 268.878C775.071 268.878 774.316 269.39 773.771 270.415C773.226 271.427 772.953 272.985 772.953 275.091ZM776.035 281.305C777.013 281.305 777.775 280.8 778.32 279.788C778.865 278.763 779.137 277.197 779.137 275.091C779.137 273.304 778.963 271.919 778.613 270.935L773.96 280.225C774.463 280.945 775.154 281.305 776.035 281.305Z" fill="url(#paint5_linear_122_130)" fill-opacity="0.6"/>
<path d="M777.293 304.89H780.374V305.992H772.387V304.89H775.951V293.21L772.555 295.226L771.968 294.291L776.161 291.714H777.293V304.89Z" fill="url(#paint6_linear_122_130)" fill-opacity="0.6"/>
<path d="M776.035 315.257C777.53 315.257 778.662 315.888 779.431 317.149C780.213 318.396 780.605 320.211 780.605 322.594C780.605 324.977 780.213 326.798 779.431 328.059C778.662 329.32 777.53 329.95 776.035 329.95C774.554 329.95 773.422 329.32 772.639 328.059C771.856 326.798 771.465 324.977 771.465 322.594C771.465 320.224 771.856 318.409 772.639 317.149C773.422 315.888 774.554 315.257 776.035 315.257ZM772.953 322.594C772.953 324.284 773.107 325.607 773.415 326.563L778.068 317.356C777.579 316.705 776.901 316.38 776.035 316.38C775.071 316.38 774.316 316.892 773.771 317.918C773.226 318.929 772.953 320.488 772.953 322.594ZM776.035 328.807C777.013 328.807 777.775 328.302 778.32 327.29C778.865 326.265 779.137 324.699 779.137 322.594C779.137 320.806 778.963 319.421 778.613 318.437L773.96 327.727C774.463 328.447 775.154 328.807 776.035 328.807Z" fill="url(#paint7_linear_122_130)" fill-opacity="0.6"/>
<path d="M776.035 339.008C777.53 339.008 778.662 339.639 779.431 340.9C780.213 342.147 780.605 343.962 780.605 346.345C780.605 348.728 780.213 350.549 779.431 351.81C778.662 353.071 777.53 353.701 776.035 353.701C774.554 353.701 773.422 353.071 772.639 351.81C771.856 350.549 771.465 348.728 771.465 346.345C771.465 343.975 771.856 342.16 772.639 340.9C773.422 339.639 774.554 339.008 776.035 339.008ZM772.953 346.345C772.953 348.035 773.107 349.358 773.415 350.314L778.068 341.107C777.579 340.456 776.901 340.131 776.035 340.131C775.071 340.131 774.316 340.643 773.771 341.669C773.226 342.68 772.953 344.239 772.953 346.345ZM776.035 352.558C777.013 352.558 777.775 352.053 778.32 351.041C778.865 350.016 779.137 348.451 779.137 346.345C779.137 344.557 778.963 343.172 778.613 342.188L773.96 351.478C774.463 352.198 775.154 352.558 776.035 352.558Z" fill="url(#paint8_linear_122_130)" fill-opacity="0.6"/>
<path d="M777.293 376.143H780.374V377.245H772.387V376.143H775.951V364.464L772.555 366.48L771.968 365.544L776.161 362.967H777.293V376.143Z" fill="url(#paint9_linear_122_130)" fill-opacity="0.6"/>
<path d="M776.035 386.511C777.53 386.511 778.662 387.141 779.431 388.402C780.213 389.649 780.605 391.464 780.605 393.847C780.605 396.23 780.213 398.052 779.431 399.312C778.662 400.573 777.53 401.204 776.035 401.204C774.554 401.204 773.422 400.573 772.639 399.312C771.856 398.052 771.465 396.23 771.465 393.847C771.465 391.478 771.856 389.663 772.639 388.402C773.422 387.141 774.554 386.511 776.035 386.511ZM772.953 393.847C772.953 395.537 773.107 396.86 773.415 397.816L778.068 388.61C777.579 387.958 776.901 387.633 776.035 387.633C775.071 387.633 774.316 388.145 773.771 389.171C773.226 390.182 772.953 391.741 772.953 393.847ZM776.035 400.061C777.013 400.061 777.775 399.555 778.32 398.543C778.865 397.518 779.137 395.953 779.137 393.847C779.137 392.059 778.963 390.674 778.613 389.69L773.96 398.98C774.463 399.7 775.154 400.061 776.035 400.061Z" fill="url(#paint10_linear_122_130)" fill-opacity="0.6"/>
<path d="M777.293 423.645H780.374V424.747H772.387V423.645H775.951V411.966L772.555 413.982L771.968 413.046L776.161 410.469H777.293V423.645Z" fill="url(#paint11_linear_122_130)" fill-opacity="0.6"/>
<path d="M777.293 447.396H780.374V448.498H772.387V447.396H775.951V435.717L772.555 437.733L771.968 436.798L776.161 434.221H777.293V447.396Z" fill="url(#paint12_linear_122_130)" fill-opacity="0.6"/>
<path d="M814.965 196.502C816.46 196.502 817.592 197.133 818.361 198.393C819.144 199.64 819.535 201.455 819.535 203.838C819.535 206.221 819.144 208.043 818.361 209.304C817.592 210.565 816.46 211.195 814.965 211.195C813.484 211.195 812.352 210.565 811.569 209.304C810.787 208.043 810.395 206.221 810.395 203.838C810.395 201.469 810.787 199.654 811.569 198.393C812.352 197.133 813.484 196.502 814.965 196.502ZM811.884 203.838C811.884 205.529 812.037 206.852 812.345 207.808L816.998 198.601C816.509 197.95 815.832 197.624 814.965 197.624C814.001 197.624 813.246 198.137 812.701 199.162C812.156 200.174 811.884 201.732 811.884 203.838ZM814.965 210.052C815.943 210.052 816.705 209.546 817.25 208.535C817.795 207.51 818.068 205.944 818.068 203.838C818.068 202.051 817.893 200.665 817.543 199.682L812.89 208.971C813.393 209.692 814.085 210.052 814.965 210.052Z" fill="url(#paint13_linear_122_130)" fill-opacity="0.6"/>
<path d="M816.223 233.637H819.304V234.738H811.318V233.637H814.881V221.957L811.485 223.973L810.898 223.038L815.091 220.461H816.223V233.637Z" fill="url(#paint14_linear_122_130)" fill-opacity="0.6"/>
<path d="M814.965 244.004C816.46 244.004 817.592 244.635 818.361 245.895C819.144 247.142 819.535 248.957 819.535 251.34C819.535 253.723 819.144 255.545 818.361 256.806C817.592 258.067 816.46 258.697 814.965 258.697C813.484 258.697 812.352 258.067 811.569 256.806C810.787 255.545 810.395 253.723 810.395 251.34C810.395 248.971 810.787 247.156 811.569 245.895C812.352 244.635 813.484 244.004 814.965 244.004ZM811.884 251.34C811.884 253.031 812.037 254.354 812.345 255.31L816.998 246.103C816.509 245.452 815.832 245.126 814.965 245.126C814.001 245.126 813.246 245.639 812.701 246.664C812.156 247.676 811.884 249.234 811.884 251.34ZM814.965 257.554C815.943 257.554 816.705 257.049 817.25 256.037C817.795 255.012 818.068 253.446 818.068 251.34C818.068 249.553 817.893 248.168 817.543 247.184L812.89 256.474C813.393 257.194 814.085 257.554 814.965 257.554Z" fill="url(#paint15_linear_122_130)" fill-opacity="0.6"/>
<path d="M814.965 267.755C816.46 267.755 817.592 268.386 818.361 269.646C819.144 270.893 819.535 272.708 819.535 275.091C819.535 277.474 819.144 279.296 818.361 280.557C817.592 281.818 816.46 282.448 814.965 282.448C813.484 282.448 812.352 281.818 811.569 280.557C810.787 279.296 810.395 277.474 810.395 275.091C810.395 272.722 810.787 270.907 811.569 269.646C812.352 268.386 813.484 267.755 814.965 267.755ZM811.884 275.091C811.884 276.782 812.037 278.105 812.345 279.061L816.998 269.854C816.509 269.203 815.832 268.878 814.965 268.878C814.001 268.878 813.246 269.39 812.701 270.415C812.156 271.427 811.884 272.985 811.884 275.091ZM814.965 281.305C815.943 281.305 816.705 280.8 817.25 279.788C817.795 278.763 818.068 277.197 818.068 275.091C818.068 273.304 817.893 271.919 817.543 270.935L812.89 280.225C813.393 280.945 814.085 281.305 814.965 281.305Z" fill="url(#paint16_linear_122_130)" fill-opacity="0.6"/>
<path d="M816.223 304.89H819.304V305.992H811.318V304.89H814.881V293.21L811.485 295.226L810.898 294.291L815.091 291.714H816.223V304.89Z" fill="url(#paint17_linear_122_130)" fill-opacity="0.6"/>
<path d="M814.965 315.257C816.46 315.257 817.592 315.888 818.361 317.149C819.144 318.396 819.535 320.211 819.535 322.594C819.535 324.977 819.144 326.798 818.361 328.059C817.592 329.32 816.46 329.95 814.965 329.95C813.484 329.95 812.352 329.32 811.569 328.059C810.787 326.798 810.395 324.977 810.395 322.594C810.395 320.224 810.787 318.409 811.569 317.149C812.352 315.888 813.484 315.257 814.965 315.257ZM811.884 322.594C811.884 324.284 812.037 325.607 812.345 326.563L816.998 317.356C816.509 316.705 815.832 316.38 814.965 316.38C814.001 316.38 813.246 316.892 812.701 317.918C812.156 318.929 811.884 320.488 811.884 322.594ZM814.965 328.807C815.943 328.807 816.705 328.302 817.25 327.29C817.795 326.265 818.068 324.699 818.068 322.594C818.068 320.806 817.893 319.421 817.543 318.437L812.89 327.727C813.393 328.447 814.085 328.807 814.965 328.807Z" fill="url(#paint18_linear_122_130)" fill-opacity="0.6"/>
<path d="M816.223 352.392H819.304V353.494H811.318V352.392H814.881V340.713L811.485 342.728L810.898 341.793L815.091 339.216H816.223V352.392Z" fill="url(#paint19_linear_122_130)" fill-opacity="0.6"/>
<path d="M814.965 362.76C816.46 362.76 817.592 363.39 818.361 364.651C819.144 365.898 819.535 367.713 819.535 370.096C819.535 372.479 819.144 374.301 818.361 375.561C817.592 376.822 816.46 377.453 814.965 377.453C813.484 377.453 812.352 376.822 811.569 375.561C810.787 374.301 810.395 372.479 810.395 370.096C810.395 367.726 810.787 365.911 811.569 364.651C812.352 363.39 813.484 362.76 814.965 362.76ZM811.884 370.096C811.884 371.786 812.037 373.109 812.345 374.065L816.998 364.859C816.509 364.207 815.832 363.882 814.965 363.882C814.001 363.882 813.246 364.394 812.701 365.42C812.156 366.431 811.884 367.99 811.884 370.096ZM814.965 376.31C815.943 376.31 816.705 375.804 817.25 374.792C817.795 373.767 818.068 372.202 818.068 370.096C818.068 368.308 817.893 366.923 817.543 365.939L812.89 375.229C813.393 375.949 814.085 376.31 814.965 376.31Z" fill="url(#paint20_linear_122_130)" fill-opacity="0.6"/>
<path d="M814.965 386.511C816.46 386.511 817.592 387.141 818.361 388.402C819.144 389.649 819.535 391.464 819.535 393.847C819.535 396.23 819.144 398.052 818.361 399.312C817.592 400.573 816.46 401.204 814.965 401.204C813.484 401.204 812.352 400.573 811.569 399.312C810.787 398.052 810.395 396.23 810.395 393.847C810.395 391.478 810.787 389.663 811.569 388.402C812.352 387.141 813.484 386.511 814.965 386.511ZM811.884 393.847C811.884 395.537 812.037 396.86 812.345 397.816L816.998 388.61C816.509 387.958 815.832 387.633 814.965 387.633C814.001 387.633 813.246 388.145 812.701 389.171C812.156 390.182 811.884 391.741 811.884 393.847ZM814.965 400.061C815.943 400.061 816.705 399.555 817.25 398.543C817.795 397.518 818.068 395.953 818.068 393.847C818.068 392.059 817.893 390.674 817.543 389.69L812.89 398.98C813.393 399.7 814.085 400.061 814.965 400.061Z" fill="url(#paint21_linear_122_130)" fill-opacity="0.6"/>
<path d="M816.223 423.645H819.304V424.747H811.318V423.645H814.881V411.966L811.485 413.982L810.898 413.046L815.091 410.469H816.223V423.645Z" fill="url(#paint22_linear_122_130)" fill-opacity="0.6"/>
<path d="M814.965 434.013C816.46 434.013 817.592 434.643 818.361 435.904C819.144 437.151 819.535 438.966 819.535 441.349C819.535 443.732 819.144 445.554 818.361 446.815C817.592 448.075 816.46 448.706 814.965 448.706C813.484 448.706 812.352 448.075 811.569 446.815C810.787 445.554 810.395 443.732 810.395 441.349C810.395 438.98 810.787 437.165 811.569 435.904C812.352 434.643 813.484 434.013 814.965 434.013ZM811.884 441.349C811.884 443.039 812.037 444.362 812.345 445.318L816.998 436.112C816.509 435.461 815.832 435.135 814.965 435.135C814.001 435.135 813.246 435.648 812.701 436.673C812.156 437.684 811.884 439.243 811.884 441.349ZM814.965 447.563C815.943 447.563 816.705 447.057 817.25 446.046C817.795 445.02 818.068 443.455 818.068 441.349C818.068 439.562 817.893 438.176 817.543 437.192L812.89 446.482C813.393 447.202 814.085 447.563 814.965 447.563Z" fill="url(#paint23_linear_122_130)" fill-opacity="0.6"/>
<path d="M816.223 471.148H819.304V472.249H811.318V471.148H814.881V459.468L811.485 461.484L810.898 460.549L815.091 457.972H816.223V471.148Z" fill="url(#paint24_linear_122_130)" fill-opacity="0.6"/>
<path d="M816.223 494.899H819.304V496H811.318V494.899H814.881V483.219L811.485 485.235L810.898 484.3L815.091 481.723H816.223V494.899Z" fill="url(#paint25_linear_122_130)" fill-opacity="0.6"/>
<path d="M756.57 220.253C758.065 220.253 759.197 220.884 759.966 222.144C760.748 223.391 761.14 225.206 761.14 227.589C761.14 229.972 760.748 231.794 759.966 233.055C759.197 234.316 758.065 234.946 756.57 234.946C755.088 234.946 753.956 234.316 753.174 233.055C752.391 231.794 752 229.972 752 227.589C752 225.22 752.391 223.405 753.174 222.144C753.956 220.884 755.088 220.253 756.57 220.253ZM753.488 227.589C753.488 229.28 753.642 230.603 753.95 231.559L758.603 222.352C758.114 221.701 757.436 221.375 756.57 221.375C755.606 221.375 754.851 221.888 754.306 222.913C753.761 223.925 753.488 225.483 753.488 227.589ZM756.57 233.803C757.548 233.803 758.31 233.297 758.855 232.286C759.4 231.261 759.672 229.695 759.672 227.589C759.672 225.802 759.498 224.417 759.148 223.433L754.495 232.722C754.998 233.443 755.689 233.803 756.57 233.803Z" fill="url(#paint26_linear_122_130)" fill-opacity="0.6"/>
<path d="M756.57 244.004C758.065 244.004 759.197 244.635 759.966 245.895C760.748 247.142 761.14 248.957 761.14 251.34C761.14 253.723 760.748 255.545 759.966 256.806C759.197 258.067 758.065 258.697 756.57 258.697C755.088 258.697 753.956 258.067 753.174 256.806C752.391 255.545 752 253.723 752 251.34C752 248.971 752.391 247.156 753.174 245.895C753.956 244.635 755.088 244.004 756.57 244.004ZM753.488 251.34C753.488 253.031 753.642 254.354 753.95 255.31L758.603 246.103C758.114 245.452 757.436 245.126 756.57 245.126C755.606 245.126 754.851 245.639 754.306 246.664C753.761 247.676 753.488 249.234 753.488 251.34ZM756.57 257.554C757.548 257.554 758.31 257.049 758.855 256.037C759.4 255.012 759.672 253.446 759.672 251.34C759.672 249.553 759.498 248.168 759.148 247.184L754.495 256.474C754.998 257.194 755.689 257.554 756.57 257.554Z" fill="url(#paint27_linear_122_130)" fill-opacity="0.6"/>
<path d="M757.828 281.139H760.909V282.24H752.922V281.139H756.486V269.459L753.09 271.475L752.503 270.54L756.696 267.963H757.828V281.139Z" fill="url(#paint28_linear_122_130)" fill-opacity="0.6"/>
<path d="M756.57 291.506C758.065 291.506 759.197 292.137 759.966 293.398C760.748 294.644 761.14 296.459 761.14 298.842C761.14 301.225 760.748 303.047 759.966 304.308C759.197 305.569 758.065 306.199 756.57 306.199C755.088 306.199 753.956 305.569 753.174 304.308C752.391 303.047 752 301.225 752 298.842C752 296.473 752.391 294.658 753.174 293.398C753.956 292.137 755.088 291.506 756.57 291.506ZM753.488 298.842C753.488 300.533 753.642 301.856 753.95 302.812L758.603 293.605C758.114 292.954 757.436 292.629 756.57 292.629C755.606 292.629 754.851 293.141 754.306 294.166C753.761 295.178 753.488 296.737 753.488 298.842ZM756.57 305.056C757.548 305.056 758.31 304.551 758.855 303.539C759.4 302.514 759.672 300.948 759.672 298.842C759.672 297.055 759.498 295.67 759.148 294.686L754.495 303.976C754.998 304.696 755.689 305.056 756.57 305.056Z" fill="url(#paint29_linear_122_130)" fill-opacity="0.6"/>
<path d="M757.828 328.641H760.909V329.743H752.922V328.641H756.486V316.962L753.09 318.977L752.503 318.042L756.696 315.465H757.828V328.641Z" fill="url(#paint30_linear_122_130)" fill-opacity="0.6"/>
<path d="M757.828 352.392H760.909V353.494H752.922V352.392H756.486V340.713L753.09 342.728L752.503 341.793L756.696 339.216H757.828V352.392Z" fill="url(#paint31_linear_122_130)" fill-opacity="0.6"/>
<path d="M796.758 186.135H799.839V187.236H791.853V186.135H795.416V174.455L792.02 176.471L791.433 175.536L795.626 172.959H796.758V186.135Z" fill="url(#paint32_linear_122_130)" fill-opacity="0.6"/>
<path d="M795.5 196.502C796.995 196.502 798.127 197.133 798.896 198.393C799.679 199.64 800.07 201.455 800.07 203.838C800.07 206.221 799.679 208.043 798.896 209.304C798.127 210.565 796.995 211.195 795.5 211.195C794.019 211.195 792.887 210.565 792.104 209.304C791.321 208.043 790.93 206.221 790.93 203.838C790.93 201.469 791.321 199.654 792.104 198.393C792.887 197.133 794.019 196.502 795.5 196.502ZM792.419 203.838C792.419 205.529 792.572 206.852 792.88 207.808L797.533 198.601C797.044 197.95 796.366 197.624 795.5 197.624C794.536 197.624 793.781 198.137 793.236 199.162C792.691 200.174 792.419 201.732 792.419 203.838ZM795.5 210.052C796.478 210.052 797.24 209.546 797.785 208.535C798.33 207.51 798.602 205.944 798.602 203.838C798.602 202.051 798.428 200.665 798.078 199.682L793.425 208.971C793.928 209.692 794.62 210.052 795.5 210.052Z" fill="url(#paint33_linear_122_130)" fill-opacity="0.6"/>
<path d="M796.758 233.637H799.839V234.738H791.853V233.637H795.416V221.957L792.02 223.973L791.433 223.038L795.626 220.461H796.758V233.637Z" fill="url(#paint34_linear_122_130)" fill-opacity="0.6"/>
<path d="M796.758 257.388H799.839V258.489H791.853V257.388H795.416V245.708L792.02 247.724L791.433 246.789L795.626 244.212H796.758V257.388Z" fill="url(#paint35_linear_122_130)" fill-opacity="0.6"/>
<path d="M795.5 267.755C796.995 267.755 798.127 268.386 798.896 269.646C799.679 270.893 800.07 272.708 800.07 275.091C800.07 277.474 799.679 279.296 798.896 280.557C798.127 281.818 796.995 282.448 795.5 282.448C794.019 282.448 792.887 281.818 792.104 280.557C791.321 279.296 790.93 277.474 790.93 275.091C790.93 272.722 791.321 270.907 792.104 269.646C792.887 268.386 794.019 267.755 795.5 267.755ZM792.419 275.091C792.419 276.782 792.572 278.105 792.88 279.061L797.533 269.854C797.044 269.203 796.366 268.878 795.5 268.878C794.536 268.878 793.781 269.39 793.236 270.415C792.691 271.427 792.419 272.985 792.419 275.091ZM795.5 281.305C796.478 281.305 797.24 280.8 797.785 279.788C798.33 278.763 798.602 277.197 798.602 275.091C798.602 273.304 798.428 271.919 798.078 270.935L793.425 280.225C793.928 280.945 794.62 281.305 795.5 281.305Z" fill="url(#paint36_linear_122_130)" fill-opacity="0.6"/>
<path d="M796.758 304.89H799.839V305.992H791.853V304.89H795.416V293.21L792.02 295.226L791.433 294.291L795.626 291.714H796.758V304.89Z" fill="url(#paint37_linear_122_130)" fill-opacity="0.6"/>
<path d="M796.758 328.641H799.839V329.743H791.853V328.641H795.416V316.962L792.02 318.977L791.433 318.042L795.626 315.465H796.758V328.641Z" fill="url(#paint38_linear_122_130)" fill-opacity="0.6"/>
<path d="M795.5 339.008C796.995 339.008 798.127 339.639 798.896 340.9C799.679 342.147 800.07 343.962 800.07 346.345C800.07 348.728 799.679 350.549 798.896 351.81C798.127 353.071 796.995 353.701 795.5 353.701C794.019 353.701 792.887 353.071 792.104 351.81C791.321 350.549 790.93 348.728 790.93 346.345C790.93 343.975 791.321 342.16 792.104 340.9C792.887 339.639 794.019 339.008 795.5 339.008ZM792.419 346.345C792.419 348.035 792.572 349.358 792.88 350.314L797.533 341.107C797.044 340.456 796.366 340.131 795.5 340.131C794.536 340.131 793.781 340.643 793.236 341.669C792.691 342.68 792.419 344.239 792.419 346.345ZM795.5 352.558C796.478 352.558 797.24 352.053 797.785 351.041C798.33 350.016 798.602 348.451 798.602 346.345C798.602 344.557 798.428 343.172 798.078 342.188L793.425 351.478C793.928 352.198 794.62 352.558 795.5 352.558Z" fill="url(#paint39_linear_122_130)" fill-opacity="0.6"/>
<path d="M796.758 376.143H799.839V377.245H791.853V376.143H795.416V364.464L792.02 366.48L791.433 365.544L795.626 362.967H796.758V376.143Z" fill="url(#paint40_linear_122_130)" fill-opacity="0.6"/>
<path d="M795.5 386.511C796.995 386.511 798.127 387.141 798.896 388.402C799.679 389.649 800.07 391.464 800.07 393.847C800.07 396.23 799.679 398.052 798.896 399.312C798.127 400.573 796.995 401.204 795.5 401.204C794.019 401.204 792.887 400.573 792.104 399.312C791.321 398.052 790.93 396.23 790.93 393.847C790.93 391.478 791.321 389.663 792.104 388.402C792.887 387.141 794.019 386.511 795.5 386.511ZM792.419 393.847C792.419 395.537 792.572 396.86 792.88 397.816L797.533 388.61C797.044 387.958 796.366 387.633 795.5 387.633C794.536 387.633 793.781 388.145 793.236 389.171C792.691 390.182 792.419 391.741 792.419 393.847ZM795.5 400.061C796.478 400.061 797.24 399.555 797.785 398.543C798.33 397.518 798.602 395.953 798.602 393.847C798.602 392.059 798.428 390.674 798.078 389.69L793.425 398.98C793.928 399.7 794.62 400.061 795.5 400.061Z" fill="url(#paint41_linear_122_130)" fill-opacity="0.6"/>
<path d="M834.43 172.751C835.926 172.751 837.057 173.381 837.826 174.642C838.609 175.889 839 177.704 839 180.087C839 182.47 838.609 184.292 837.826 185.553C837.057 186.814 835.926 187.444 834.43 187.444C832.949 187.444 831.817 186.814 831.034 185.553C830.252 184.292 829.86 182.47 829.86 180.087C829.86 177.718 830.252 175.903 831.034 174.642C831.817 173.381 832.949 172.751 834.43 172.751ZM831.349 180.087C831.349 181.777 831.502 183.101 831.81 184.057L836.464 174.85C835.974 174.199 835.297 173.873 834.43 173.873C833.466 173.873 832.711 174.386 832.166 175.411C831.621 176.423 831.349 177.981 831.349 180.087ZM834.43 186.301C835.408 186.301 836.17 185.795 836.715 184.784C837.26 183.759 837.533 182.193 837.533 180.087C837.533 178.3 837.358 176.914 837.009 175.931L832.355 185.22C832.858 185.941 833.55 186.301 834.43 186.301Z" fill="url(#paint42_linear_122_130)" fill-opacity="0.6"/>
<path d="M835.688 209.886H838.769V210.987H830.783V209.886H834.346V198.206L830.95 200.222L830.363 199.287L834.556 196.71H835.688V209.886Z" fill="url(#paint43_linear_122_130)" fill-opacity="0.6"/>
<path d="M835.688 233.637H838.769V234.738H830.783V233.637H834.346V221.957L830.95 223.973L830.363 223.038L834.556 220.461H835.688V233.637Z" fill="url(#paint44_linear_122_130)" fill-opacity="0.6"/>
<path d="M834.43 244.004C835.926 244.004 837.057 244.635 837.826 245.895C838.609 247.142 839 248.957 839 251.34C839 253.723 838.609 255.545 837.826 256.806C837.057 258.067 835.926 258.697 834.43 258.697C832.949 258.697 831.817 258.067 831.034 256.806C830.252 255.545 829.86 253.723 829.86 251.34C829.86 248.971 830.252 247.156 831.034 245.895C831.817 244.635 832.949 244.004 834.43 244.004ZM831.349 251.34C831.349 253.031 831.502 254.354 831.81 255.31L836.464 246.103C835.974 245.452 835.297 245.126 834.43 245.126C833.466 245.126 832.711 245.639 832.166 246.664C831.621 247.676 831.349 249.234 831.349 251.34ZM834.43 257.554C835.408 257.554 836.17 257.049 836.715 256.037C837.26 255.012 837.533 253.446 837.533 251.34C837.533 249.553 837.358 248.168 837.009 247.184L832.355 256.474C832.858 257.194 833.55 257.554 834.43 257.554Z" fill="url(#paint45_linear_122_130)" fill-opacity="0.6"/>
<path d="M834.43 267.755C835.926 267.755 837.057 268.386 837.826 269.646C838.609 270.893 839 272.708 839 275.091C839 277.474 838.609 279.296 837.826 280.557C837.057 281.818 835.926 282.448 834.43 282.448C832.949 282.448 831.817 281.818 831.034 280.557C830.252 279.296 829.86 277.474 829.86 275.091C829.86 272.722 830.252 270.907 831.034 269.646C831.817 268.386 832.949 267.755 834.43 267.755ZM831.349 275.091C831.349 276.782 831.502 278.105 831.81 279.061L836.464 269.854C835.974 269.203 835.297 268.878 834.43 268.878C833.466 268.878 832.711 269.39 832.166 270.415C831.621 271.427 831.349 272.985 831.349 275.091ZM834.43 281.305C835.408 281.305 836.17 280.8 836.715 279.788C837.26 278.763 837.533 277.197 837.533 275.091C837.533 273.304 837.358 271.919 837.009 270.935L832.355 280.225C832.858 280.945 833.55 281.305 834.43 281.305Z" fill="url(#paint46_linear_122_130)" fill-opacity="0.6"/>
<g opacity="0.2" filter="url(#filter1_f_122_130)">
<ellipse cx="-243.5" cy="366" rx="670.5" ry="350" fill="#338AF3"/>
</g>
<g opacity="0.6">
<path d="M163.93 302C165.356 302 166.436 302.605 167.17 303.815C167.916 305.011 168.29 306.753 168.29 309.04C168.29 311.327 167.916 313.075 167.17 314.285C166.436 315.495 165.356 316.1 163.93 316.1C162.517 316.1 161.437 315.495 160.69 314.285C159.943 313.075 159.57 311.327 159.57 309.04C159.57 306.767 159.943 305.025 160.69 303.815C161.437 302.605 162.517 302 163.93 302ZM160.99 309.04C160.99 310.662 161.137 311.932 161.43 312.849L165.87 304.014C165.403 303.389 164.756 303.077 163.93 303.077C163.01 303.077 162.29 303.569 161.77 304.553C161.25 305.523 160.99 307.019 160.99 309.04ZM163.93 315.003C164.863 315.003 165.59 314.518 166.11 313.547C166.63 312.564 166.89 311.061 166.89 309.04C166.89 307.325 166.723 305.995 166.39 305.051L161.95 313.966C162.43 314.658 163.09 315.003 163.93 315.003Z" fill="url(#paint47_linear_122_130)"/>
<path d="M165.13 337.637H168.07V338.694H160.45V337.637H163.85V326.428L160.61 328.363L160.05 327.465L164.05 324.992H165.13V337.637Z" fill="url(#paint48_linear_122_130)"/>
<path d="M163.93 347.586C165.356 347.586 166.436 348.191 167.17 349.4C167.916 350.597 168.29 352.339 168.29 354.626C168.29 356.913 167.916 358.661 167.17 359.871C166.436 361.081 165.356 361.686 163.93 361.686C162.517 361.686 161.437 361.081 160.69 359.871C159.943 358.661 159.57 356.913 159.57 354.626C159.57 352.352 159.943 350.61 160.69 349.4C161.437 348.191 162.517 347.586 163.93 347.586ZM160.99 354.626C160.99 356.248 161.137 357.518 161.43 358.435L165.87 349.6C165.403 348.975 164.756 348.663 163.93 348.663C163.01 348.663 162.29 349.155 161.77 350.138C161.25 351.109 160.99 352.605 160.99 354.626ZM163.93 360.589C164.863 360.589 165.59 360.104 166.11 359.133C166.63 358.149 166.89 356.647 166.89 354.626C166.89 352.911 166.723 351.581 166.39 350.637L161.95 359.552C162.43 360.243 163.09 360.589 163.93 360.589Z" fill="url(#paint49_linear_122_130)"/>
<path d="M165.13 383.222H168.07V384.279H160.45V383.222H163.85V372.014L160.61 373.948L160.05 373.051L164.05 370.578H165.13V383.222Z" fill="url(#paint50_linear_122_130)"/>
<path d="M165.13 406.015H168.07V407.072H160.45V406.015H163.85V394.807L160.61 396.741L160.05 395.844L164.05 393.371H165.13V406.015Z" fill="url(#paint51_linear_122_130)"/>
<path d="M163.93 415.964C165.356 415.964 166.436 416.569 167.17 417.779C167.916 418.976 168.29 420.717 168.29 423.004C168.29 425.291 167.916 427.039 167.17 428.249C166.436 429.459 165.356 430.064 163.93 430.064C162.517 430.064 161.437 429.459 160.69 428.249C159.943 427.039 159.57 425.291 159.57 423.004C159.57 420.731 159.943 418.989 160.69 417.779C161.437 416.569 162.517 415.964 163.93 415.964ZM160.99 423.004C160.99 424.626 161.137 425.896 161.43 426.813L165.87 417.978C165.403 417.353 164.756 417.041 163.93 417.041C163.01 417.041 162.29 417.533 161.77 418.517C161.25 419.487 160.99 420.983 160.99 423.004ZM163.93 428.967C164.863 428.967 165.59 428.482 166.11 427.511C166.63 426.528 166.89 425.025 166.89 423.004C166.89 421.289 166.723 419.959 166.39 419.015L161.95 427.93C162.43 428.622 163.09 428.967 163.93 428.967Z" fill="url(#paint52_linear_122_130)"/>
<path d="M165.13 451.601H168.07V452.658H160.45V451.601H163.85V440.392L160.61 442.327L160.05 441.429L164.05 438.956H165.13V451.601Z" fill="url(#paint53_linear_122_130)"/>
<path d="M163.93 461.55C165.356 461.55 166.436 462.155 167.17 463.365C167.916 464.561 168.29 466.303 168.29 468.59C168.29 470.877 167.916 472.625 167.17 473.835C166.436 475.045 165.356 475.65 163.93 475.65C162.517 475.65 161.437 475.045 160.69 473.835C159.943 472.625 159.57 470.877 159.57 468.59C159.57 466.316 159.943 464.574 160.69 463.365C161.437 462.155 162.517 461.55 163.93 461.55ZM160.99 468.59C160.99 470.212 161.137 471.482 161.43 472.399L165.87 463.564C165.403 462.939 164.756 462.627 163.93 462.627C163.01 462.627 162.29 463.119 161.77 464.102C161.25 465.073 160.99 466.569 160.99 468.59ZM163.93 474.553C164.863 474.553 165.59 474.068 166.11 473.097C166.63 472.113 166.89 470.611 166.89 468.59C166.89 466.875 166.723 465.545 166.39 464.601L161.95 473.516C162.43 474.207 163.09 474.553 163.93 474.553Z" fill="url(#paint54_linear_122_130)"/>
<path d="M163.93 484.342C165.356 484.342 166.436 484.947 167.17 486.157C167.916 487.354 168.29 489.096 168.29 491.383C168.29 493.669 167.916 495.418 167.17 496.628C166.436 497.838 165.356 498.443 163.93 498.443C162.517 498.443 161.437 497.838 160.69 496.628C159.943 495.418 159.57 493.669 159.57 491.383C159.57 489.109 159.943 487.367 160.69 486.157C161.437 484.947 162.517 484.342 163.93 484.342ZM160.99 491.383C160.99 493.005 161.137 494.274 161.43 495.192L165.87 486.357C165.403 485.732 164.756 485.419 163.93 485.419C163.01 485.419 162.29 485.911 161.77 486.895C161.25 487.866 160.99 489.362 160.99 491.383ZM163.93 497.346C164.863 497.346 165.59 496.86 166.11 495.89C166.63 494.906 166.89 493.404 166.89 491.383C166.89 489.667 166.723 488.338 166.39 487.394L161.95 496.309C162.43 497 163.09 497.346 163.93 497.346Z" fill="url(#paint55_linear_122_130)"/>
<path d="M165.13 519.979H168.07V521.036H160.45V519.979H163.85V508.771L160.61 510.705L160.05 509.808L164.05 507.335H165.13V519.979Z" fill="url(#paint56_linear_122_130)"/>
<path d="M163.93 529.928C165.356 529.928 166.436 530.533 167.17 531.743C167.916 532.94 168.29 534.681 168.29 536.968C168.29 539.255 167.916 541.003 167.17 542.213C166.436 543.423 165.356 544.028 163.93 544.028C162.517 544.028 161.437 543.423 160.69 542.213C159.943 541.003 159.57 539.255 159.57 536.968C159.57 534.695 159.943 532.953 160.69 531.743C161.437 530.533 162.517 529.928 163.93 529.928ZM160.99 536.968C160.99 538.59 161.137 539.86 161.43 540.777L165.87 531.942C165.403 531.317 164.756 531.005 163.93 531.005C163.01 531.005 162.29 531.497 161.77 532.481C161.25 533.451 160.99 534.947 160.99 536.968ZM163.93 542.931C164.863 542.931 165.59 542.446 166.11 541.475C166.63 540.492 166.89 538.989 166.89 536.968C166.89 535.253 166.723 533.923 166.39 532.979L161.95 541.894C162.43 542.586 163.09 542.931 163.93 542.931Z" fill="url(#paint57_linear_122_130)"/>
<path d="M165.13 565.565H168.07V566.622H160.45V565.565H163.85V554.356L160.61 556.291L160.05 555.393L164.05 552.92H165.13V565.565Z" fill="url(#paint58_linear_122_130)"/>
<path d="M165.13 588.357H168.07V589.414H160.45V588.357H163.85V577.149L160.61 579.084L160.05 578.186L164.05 575.713H165.13V588.357Z" fill="url(#paint59_linear_122_130)"/>
<path d="M201.07 347.586C202.497 347.586 203.577 348.191 204.31 349.4C205.057 350.597 205.43 352.339 205.43 354.626C205.43 356.913 205.057 358.661 204.31 359.871C203.577 361.081 202.497 361.686 201.07 361.686C199.657 361.686 198.577 361.081 197.83 359.871C197.084 358.661 196.71 356.913 196.71 354.626C196.71 352.352 197.084 350.61 197.83 349.4C198.577 348.191 199.657 347.586 201.07 347.586ZM198.13 354.626C198.13 356.248 198.277 357.518 198.57 358.435L203.01 349.6C202.543 348.975 201.897 348.663 201.07 348.663C200.15 348.663 199.43 349.155 198.91 350.138C198.39 351.109 198.13 352.605 198.13 354.626ZM201.07 360.589C202.003 360.589 202.73 360.104 203.25 359.133C203.77 358.149 204.03 356.647 204.03 354.626C204.03 352.911 203.863 351.581 203.53 350.637L199.09 359.552C199.57 360.243 200.23 360.589 201.07 360.589Z" fill="url(#paint60_linear_122_130)"/>
<path d="M202.27 383.222H205.21V384.279H197.59V383.222H200.99V372.014L197.75 373.948L197.19 373.051L201.19 370.578H202.27V383.222Z" fill="url(#paint61_linear_122_130)"/>
<path d="M201.07 393.171C202.497 393.171 203.577 393.776 204.31 394.986C205.057 396.183 205.43 397.924 205.43 400.211C205.43 402.498 205.057 404.247 204.31 405.457C203.577 406.666 202.497 407.271 201.07 407.271C199.657 407.271 198.577 406.666 197.83 405.457C197.084 404.247 196.71 402.498 196.71 400.211C196.71 397.938 197.084 396.196 197.83 394.986C198.577 393.776 199.657 393.171 201.07 393.171ZM198.13 400.211C198.13 401.833 198.277 403.103 198.57 404.021L203.01 395.186C202.543 394.561 201.897 394.248 201.07 394.248C200.15 394.248 199.43 394.74 198.91 395.724C198.39 396.695 198.13 398.19 198.13 400.211ZM201.07 406.174C202.003 406.174 202.73 405.689 203.25 404.719C203.77 403.735 204.03 402.232 204.03 400.211C204.03 398.496 203.863 397.167 203.53 396.223L199.09 405.137C199.57 405.829 200.23 406.174 201.07 406.174Z" fill="url(#paint62_linear_122_130)"/>
<path d="M201.07 415.964C202.497 415.964 203.577 416.569 204.31 417.779C205.057 418.976 205.43 420.717 205.43 423.004C205.43 425.291 205.057 427.039 204.31 428.249C203.577 429.459 202.497 430.064 201.07 430.064C199.657 430.064 198.577 429.459 197.83 428.249C197.084 427.039 196.71 425.291 196.71 423.004C196.71 420.731 197.084 418.989 197.83 417.779C198.577 416.569 199.657 415.964 201.07 415.964ZM198.13 423.004C198.13 424.626 198.277 425.896 198.57 426.813L203.01 417.978C202.543 417.353 201.897 417.041 201.07 417.041C200.15 417.041 199.43 417.533 198.91 418.517C198.39 419.487 198.13 420.983 198.13 423.004ZM201.07 428.967C202.003 428.967 202.73 428.482 203.25 427.511C203.77 426.528 204.03 425.025 204.03 423.004C204.03 421.289 203.863 419.959 203.53 419.015L199.09 427.93C199.57 428.622 200.23 428.967 201.07 428.967Z" fill="url(#paint63_linear_122_130)"/>
<path d="M202.27 451.601H205.21V452.658H197.59V451.601H200.99V440.392L197.75 442.327L197.19 441.429L201.19 438.956H202.27V451.601Z" fill="url(#paint64_linear_122_130)"/>
<path d="M201.07 461.55C202.497 461.55 203.577 462.155 204.31 463.365C205.057 464.561 205.43 466.303 205.43 468.59C205.43 470.877 205.057 472.625 204.31 473.835C203.577 475.045 202.497 475.65 201.07 475.65C199.657 475.65 198.577 475.045 197.83 473.835C197.084 472.625 196.71 470.877 196.71 468.59C196.71 466.316 197.084 464.574 197.83 463.365C198.577 462.155 199.657 461.55 201.07 461.55ZM198.13 468.59C198.13 470.212 198.277 471.482 198.57 472.399L203.01 463.564C202.543 462.939 201.897 462.627 201.07 462.627C200.15 462.627 199.43 463.119 198.91 464.102C198.39 465.073 198.13 466.569 198.13 468.59ZM201.07 474.553C202.003 474.553 202.73 474.068 203.25 473.097C203.77 472.113 204.03 470.611 204.03 468.59C204.03 466.875 203.863 465.545 203.53 464.601L199.09 473.516C199.57 474.207 200.23 474.553 201.07 474.553Z" fill="url(#paint65_linear_122_130)"/>
<path d="M202.27 497.186H205.21V498.243H197.59V497.186H200.99V485.978L197.75 487.912L197.19 487.015L201.19 484.542H202.27V497.186Z" fill="url(#paint66_linear_122_130)"/>
<path d="M201.07 507.135C202.497 507.135 203.577 507.74 204.31 508.95C205.057 510.147 205.43 511.888 205.43 514.175C205.43 516.462 205.057 518.211 204.31 519.421C203.577 520.63 202.497 521.235 201.07 521.235C199.657 521.235 198.577 520.63 197.83 519.421C197.084 518.211 196.71 516.462 196.71 514.175C196.71 511.902 197.084 510.16 197.83 508.95C198.577 507.74 199.657 507.135 201.07 507.135ZM198.13 514.175C198.13 515.797 198.277 517.067 198.57 517.985L203.01 509.15C202.543 508.525 201.897 508.212 201.07 508.212C200.15 508.212 199.43 508.704 198.91 509.688C198.39 510.659 198.13 512.154 198.13 514.175ZM201.07 520.139C202.003 520.139 202.73 519.653 203.25 518.683C203.77 517.699 204.03 516.196 204.03 514.175C204.03 512.46 203.863 511.131 203.53 510.187L199.09 519.101C199.57 519.793 200.23 520.139 201.07 520.139Z" fill="url(#paint67_linear_122_130)"/>
<path d="M201.07 529.928C202.497 529.928 203.577 530.533 204.31 531.743C205.057 532.94 205.43 534.681 205.43 536.968C205.43 539.255 205.057 541.003 204.31 542.213C203.577 543.423 202.497 544.028 201.07 544.028C199.657 544.028 198.577 543.423 197.83 542.213C197.084 541.003 196.71 539.255 196.71 536.968C196.71 534.695 197.084 532.953 197.83 531.743C198.577 530.533 199.657 529.928 201.07 529.928ZM198.13 536.968C198.13 538.59 198.277 539.86 198.57 540.777L203.01 531.942C202.543 531.317 201.897 531.005 201.07 531.005C200.15 531.005 199.43 531.497 198.91 532.481C198.39 533.451 198.13 534.947 198.13 536.968ZM201.07 542.931C202.003 542.931 202.73 542.446 203.25 541.475C203.77 540.492 204.03 538.989 204.03 536.968C204.03 535.253 203.863 533.923 203.53 532.979L199.09 541.894C199.57 542.586 200.23 542.931 201.07 542.931Z" fill="url(#paint68_linear_122_130)"/>
<path d="M202.27 565.565H205.21V566.622H197.59V565.565H200.99V554.356L197.75 556.291L197.19 555.393L201.19 552.92H202.27V565.565Z" fill="url(#paint69_linear_122_130)"/>
<path d="M201.07 575.514C202.497 575.514 203.577 576.119 204.31 577.329C205.057 578.525 205.43 580.267 205.43 582.554C205.43 584.841 205.057 586.589 204.31 587.799C203.577 589.009 202.497 589.614 201.07 589.614C199.657 589.614 198.577 589.009 197.83 587.799C197.084 586.589 196.71 584.841 196.71 582.554C196.71 580.28 197.084 578.538 197.83 577.329C198.577 576.119 199.657 575.514 201.07 575.514ZM198.13 582.554C198.13 584.176 198.277 585.446 198.57 586.363L203.01 577.528C202.543 576.903 201.897 576.591 201.07 576.591C200.15 576.591 199.43 577.083 198.91 578.066C198.39 579.037 198.13 580.533 198.13 582.554ZM201.07 588.517C202.003 588.517 202.73 588.032 203.25 587.061C203.77 586.077 204.03 584.575 204.03 582.554C204.03 580.839 203.863 579.509 203.53 578.565L199.09 587.48C199.57 588.171 200.23 588.517 201.07 588.517Z" fill="url(#paint70_linear_122_130)"/>
<path d="M202.27 611.15H205.21V612.207H197.59V611.15H200.99V599.942L197.75 601.876L197.19 600.979L201.19 598.506H202.27V611.15Z" fill="url(#paint71_linear_122_130)"/>
<path d="M202.27 633.943H205.21V635H197.59V633.943H200.99V622.735L197.75 624.669L197.19 623.772L201.19 621.299H202.27V633.943Z" fill="url(#paint72_linear_122_130)"/>
<path d="M145.36 370.378C146.786 370.378 147.866 370.983 148.599 372.193C149.346 373.39 149.719 375.132 149.719 377.419C149.719 379.705 149.346 381.454 148.599 382.664C147.866 383.874 146.786 384.479 145.36 384.479C143.946 384.479 142.867 383.874 142.12 382.664C141.373 381.454 141 379.705 141 377.419C141 375.145 141.373 373.403 142.12 372.193C142.867 370.983 143.946 370.378 145.36 370.378ZM142.42 377.419C142.42 379.041 142.567 380.31 142.86 381.228L147.3 372.393C146.833 371.768 146.186 371.455 145.36 371.455C144.44 371.455 143.72 371.947 143.2 372.931C142.68 373.902 142.42 375.398 142.42 377.419ZM145.36 383.382C146.293 383.382 147.02 382.896 147.54 381.926C148.06 380.942 148.319 379.44 148.319 377.419C148.319 375.703 148.153 374.374 147.82 373.43L143.38 382.345C143.86 383.036 144.52 383.382 145.36 383.382Z" fill="url(#paint73_linear_122_130)"/>
<path d="M145.36 393.171C146.786 393.171 147.866 393.776 148.599 394.986C149.346 396.183 149.719 397.924 149.719 400.211C149.719 402.498 149.346 404.247 148.599 405.457C147.866 406.666 146.786 407.271 145.36 407.271C143.946 407.271 142.867 406.666 142.12 405.457C141.373 404.247 141 402.498 141 400.211C141 397.938 141.373 396.196 142.12 394.986C142.867 393.776 143.946 393.171 145.36 393.171ZM142.42 400.211C142.42 401.833 142.567 403.103 142.86 404.021L147.3 395.186C146.833 394.561 146.186 394.248 145.36 394.248C144.44 394.248 143.72 394.74 143.2 395.724C142.68 396.695 142.42 398.19 142.42 400.211ZM145.36 406.174C146.293 406.174 147.02 405.689 147.54 404.719C148.06 403.735 148.319 402.232 148.319 400.211C148.319 398.496 148.153 397.167 147.82 396.223L143.38 405.137C143.86 405.829 144.52 406.174 145.36 406.174Z" fill="url(#paint74_linear_122_130)"/>
<path d="M146.56 428.808H149.499V429.865H141.88V428.808H145.28V417.599L142.04 419.534L141.48 418.636L145.48 416.163H146.56V428.808Z" fill="url(#paint75_linear_122_130)"/>
<path d="M145.36 438.757C146.786 438.757 147.866 439.362 148.599 440.572C149.346 441.768 149.719 443.51 149.719 445.797C149.719 448.084 149.346 449.832 148.599 451.042C147.866 452.252 146.786 452.857 145.36 452.857C143.946 452.857 142.867 452.252 142.12 451.042C141.373 449.832 141 448.084 141 445.797C141 443.523 141.373 441.782 142.12 440.572C142.867 439.362 143.946 438.757 145.36 438.757ZM142.42 445.797C142.42 447.419 142.567 448.689 142.86 449.606L147.3 440.771C146.833 440.146 146.186 439.834 145.36 439.834C144.44 439.834 143.72 440.326 143.2 441.31C142.68 442.28 142.42 443.776 142.42 445.797ZM145.36 451.76C146.293 451.76 147.02 451.275 147.54 450.304C148.06 449.32 148.319 447.818 148.319 445.797C148.319 444.082 148.153 442.752 147.82 441.808L143.38 450.723C143.86 451.414 144.52 451.76 145.36 451.76Z" fill="url(#paint76_linear_122_130)"/>
<path d="M146.56 474.393H149.499V475.45H141.88V474.393H145.28V463.185L142.04 465.12L141.48 464.222L145.48 461.749H146.56V474.393Z" fill="url(#paint77_linear_122_130)"/>
<path d="M146.56 497.186H149.499V498.243H141.88V497.186H145.28V485.978L142.04 487.912L141.48 487.015L145.48 484.542H146.56V497.186Z" fill="url(#paint78_linear_122_130)"/>
<path d="M183.7 337.637H186.64V338.694H179.02V337.637H182.42V326.428L179.18 328.363L178.62 327.465L182.62 324.992H183.7V337.637Z" fill="url(#paint79_linear_122_130)"/>
<path d="M182.5 347.586C183.927 347.586 185.006 348.191 185.74 349.4C186.486 350.597 186.86 352.339 186.86 354.626C186.86 356.913 186.486 358.661 185.74 359.871C185.006 361.081 183.927 361.686 182.5 361.686C181.087 361.686 180.007 361.081 179.26 359.871C178.514 358.661 178.14 356.913 178.14 354.626C178.14 352.352 178.514 350.61 179.26 349.4C180.007 348.191 181.087 347.586 182.5 347.586ZM179.56 354.626C179.56 356.248 179.707 357.518 180 358.435L184.44 349.6C183.973 348.975 183.327 348.663 182.5 348.663C181.58 348.663 180.86 349.155 180.34 350.138C179.82 351.109 179.56 352.605 179.56 354.626ZM182.5 360.589C183.433 360.589 184.16 360.104 184.68 359.133C185.2 358.149 185.46 356.647 185.46 354.626C185.46 352.911 185.293 351.581 184.96 350.637L180.52 359.552C181 360.243 181.66 360.589 182.5 360.589Z" fill="url(#paint80_linear_122_130)"/>
<path d="M183.7 383.222H186.64V384.279H179.02V383.222H182.42V372.014L179.18 373.948L178.62 373.051L182.62 370.578H183.7V383.222Z" fill="url(#paint81_linear_122_130)"/>
<path d="M183.7 406.015H186.64V407.072H179.02V406.015H182.42V394.807L179.18 396.741L178.62 395.844L182.62 393.371H183.7V406.015Z" fill="url(#paint82_linear_122_130)"/>
<path d="M182.5 415.964C183.927 415.964 185.006 416.569 185.74 417.779C186.486 418.976 186.86 420.717 186.86 423.004C186.86 425.291 186.486 427.039 185.74 428.249C185.006 429.459 183.927 430.064 182.5 430.064C181.087 430.064 180.007 429.459 179.26 428.249C178.514 427.039 178.14 425.291 178.14 423.004C178.14 420.731 178.514 418.989 179.26 417.779C180.007 416.569 181.087 415.964 182.5 415.964ZM179.56 423.004C179.56 424.626 179.707 425.896 180 426.813L184.44 417.978C183.973 417.353 183.327 417.041 182.5 417.041C181.58 417.041 180.86 417.533 180.34 418.517C179.82 419.487 179.56 420.983 179.56 423.004ZM182.5 428.967C183.433 428.967 184.16 428.482 184.68 427.511C185.2 426.528 185.46 425.025 185.46 423.004C185.46 421.289 185.293 419.959 184.96 419.015L180.52 427.93C181 428.622 181.66 428.967 182.5 428.967Z" fill="url(#paint83_linear_122_130)"/>
<path d="M183.7 451.601H186.64V452.658H179.02V451.601H182.42V440.392L179.18 442.327L178.62 441.429L182.62 438.956H183.7V451.601Z" fill="url(#paint84_linear_122_130)"/>
<path d="M183.7 474.393H186.64V475.45H179.02V474.393H182.42V463.185L179.18 465.12L178.62 464.222L182.62 461.749H183.7V474.393Z" fill="url(#paint85_linear_122_130)"/>
<path d="M182.5 484.342C183.927 484.342 185.006 484.947 185.74 486.157C186.486 487.354 186.86 489.096 186.86 491.383C186.86 493.669 186.486 495.418 185.74 496.628C185.006 497.838 183.927 498.443 182.5 498.443C181.087 498.443 180.007 497.838 179.26 496.628C178.514 495.418 178.14 493.669 178.14 491.383C178.14 489.109 178.514 487.367 179.26 486.157C180.007 484.947 181.087 484.342 182.5 484.342ZM179.56 491.383C179.56 493.005 179.707 494.274 180 495.192L184.44 486.357C183.973 485.732 183.327 485.419 182.5 485.419C181.58 485.419 180.86 485.911 180.34 486.895C179.82 487.866 179.56 489.362 179.56 491.383ZM182.5 497.346C183.433 497.346 184.16 496.86 184.68 495.89C185.2 494.906 185.46 493.404 185.46 491.383C185.46 489.667 185.293 488.338 184.96 487.394L180.52 496.309C181 497 181.66 497.346 182.5 497.346Z" fill="url(#paint86_linear_122_130)"/>
<path d="M183.7 519.979H186.64V521.036H179.02V519.979H182.42V508.771L179.18 510.705L178.62 509.808L182.62 507.335H183.7V519.979Z" fill="url(#paint87_linear_122_130)"/>
<path d="M182.5 529.928C183.927 529.928 185.006 530.533 185.74 531.743C186.486 532.94 186.86 534.681 186.86 536.968C186.86 539.255 186.486 541.003 185.74 542.213C185.006 543.423 183.927 544.028 182.5 544.028C181.087 544.028 180.007 543.423 179.26 542.213C178.514 541.003 178.14 539.255 178.14 536.968C178.14 534.695 178.514 532.953 179.26 531.743C180.007 530.533 181.087 529.928 182.5 529.928ZM179.56 536.968C179.56 538.59 179.707 539.86 180 540.777L184.44 531.942C183.973 531.317 183.327 531.005 182.5 531.005C181.58 531.005 180.86 531.497 180.34 532.481C179.82 533.451 179.56 534.947 179.56 536.968ZM182.5 542.931C183.433 542.931 184.16 542.446 184.68 541.475C185.2 540.492 185.46 538.989 185.46 536.968C185.46 535.253 185.293 533.923 184.96 532.979L180.52 541.894C181 542.586 181.66 542.931 182.5 542.931Z" fill="url(#paint88_linear_122_130)"/>
<path d="M219.64 324.793C221.067 324.793 222.147 325.398 222.88 326.608C223.627 327.804 224 329.546 224 331.833C224 334.12 223.627 335.868 222.88 337.078C222.147 338.288 221.067 338.893 219.64 338.893C218.227 338.893 217.147 338.288 216.401 337.078C215.654 335.868 215.281 334.12 215.281 331.833C215.281 329.559 215.654 327.818 216.401 326.608C217.147 325.398 218.227 324.793 219.64 324.793ZM216.7 331.833C216.7 333.455 216.847 334.725 217.14 335.642L221.58 326.807C221.114 326.182 220.467 325.87 219.64 325.87C218.72 325.87 218 326.362 217.48 327.346C216.96 328.316 216.7 329.812 216.7 331.833ZM219.64 337.796C220.574 337.796 221.3 337.311 221.82 336.34C222.34 335.356 222.6 333.854 222.6 331.833C222.6 330.118 222.433 328.788 222.1 327.844L217.66 336.759C218.14 337.45 218.8 337.796 219.64 337.796Z" fill="url(#paint89_linear_122_130)"/>
<path d="M220.84 360.429H223.78V361.486H216.161V360.429H219.56V349.221L216.321 351.156L215.761 350.258L219.76 347.785H220.84V360.429Z" fill="url(#paint90_linear_122_130)"/>
<path d="M220.84 383.222H223.78V384.279H216.161V383.222H219.56V372.014L216.321 373.948L215.761 373.051L219.76 370.578H220.84V383.222Z" fill="url(#paint91_linear_122_130)"/>
<path d="M219.64 393.171C221.067 393.171 222.147 393.776 222.88 394.986C223.627 396.183 224 397.924 224 400.211C224 402.498 223.627 404.247 222.88 405.457C222.147 406.666 221.067 407.271 219.64 407.271C218.227 407.271 217.147 406.666 216.401 405.457C215.654 404.247 215.281 402.498 215.281 400.211C215.281 397.938 215.654 396.196 216.401 394.986C217.147 393.776 218.227 393.171 219.64 393.171ZM216.7 400.211C216.7 401.833 216.847 403.103 217.14 404.021L221.58 395.186C221.114 394.561 220.467 394.248 219.64 394.248C218.72 394.248 218 394.74 217.48 395.724C216.96 396.695 216.7 398.19 216.7 400.211ZM219.64 406.174C220.574 406.174 221.3 405.689 221.82 404.719C222.34 403.735 222.6 402.232 222.6 400.211C222.6 398.496 222.433 397.167 222.1 396.223L217.66 405.137C218.14 405.829 218.8 406.174 219.64 406.174Z" fill="url(#paint92_linear_122_130)"/>
<path d="M219.64 415.964C221.067 415.964 222.147 416.569 222.88 417.779C223.627 418.976 224 420.717 224 423.004C224 425.291 223.627 427.039 222.88 428.249C222.147 429.459 221.067 430.064 219.64 430.064C218.227 430.064 217.147 429.459 216.401 428.249C215.654 427.039 215.281 425.291 215.281 423.004C215.281 420.731 215.654 418.989 216.401 417.779C217.147 416.569 218.227 415.964 219.64 415.964ZM216.7 423.004C216.7 424.626 216.847 425.896 217.14 426.813L221.58 417.978C221.114 417.353 220.467 417.041 219.64 417.041C218.72 417.041 218 417.533 217.48 418.517C216.96 419.487 216.7 420.983 216.7 423.004ZM219.64 428.967C220.574 428.967 221.3 428.482 221.82 427.511C222.34 426.528 222.6 425.025 222.6 423.004C222.6 421.289 222.433 419.959 222.1 419.015L217.66 427.93C218.14 428.622 218.8 428.967 219.64 428.967Z" fill="url(#paint93_linear_122_130)"/>
</g>
</g>
<defs>
<filter id="filter0_f_122_130" x="184.81" y="-837.19" width="2141.38" height="1500.38" filterUnits="userSpaceOnUse" color-interpolation-filters="sRGB">
<feFlood flood-opacity="0" result="BackgroundImageFix"/>
<feBlend mode="normal" in="SourceGraphic" in2="BackgroundImageFix" result="shape"/>
<feGaussianBlur stdDeviation="200.095" result="effect1_foregroundBlur_122_130"/>
</filter>
<filter id="filter1_f_122_130" x="-1314.19" y="-384.19" width="2141.38" height="1500.38" filterUnits="userSpaceOnUse" color-interpolation-filters="sRGB">
<feFlood flood-opacity="0" result="BackgroundImageFix"/>
<feBlend mode="normal" in="SourceGraphic" in2="BackgroundImageFix" result="shape"/>
<feGaussianBlur stdDeviation="200.095" result="effect1_foregroundBlur_122_130"/>
</filter>
<linearGradient id="paint0_linear_122_130" x1="795.5" y1="149" x2="795.5" y2="460.381" gradientUnits="userSpaceOnUse">
<stop stop-color="#F7DD43"/>
<stop offset="1" stop-color="#F7DD43" stop-opacity="0"/>
</linearGradient>
<linearGradient id="paint1_linear_122_130" x1="795.5" y1="149" x2="795.5" y2="460.381" gradientUnits="userSpaceOnUse">
<stop stop-color="#F7DD43"/>
<stop offset="1" stop-color="#F7DD43" stop-opacity="0"/>
</linearGradient>
<linearGradient id="paint2_linear_122_130" x1="795.5" y1="149" x2="795.5" y2="460.381" gradientUnits="userSpaceOnUse">
<stop stop-color="#F7DD43"/>
<stop offset="1" stop-color="#F7DD43" stop-opacity="0"/>
</linearGradient>
<linearGradient id="paint3_linear_122_130" x1="795.5" y1="149" x2="795.5" y2="460.381" gradientUnits="userSpaceOnUse">
<stop stop-color="#F7DD43"/>
<stop offset="1" stop-color="#F7DD43" stop-opacity="0"/>
</linearGradient>
<linearGradient id="paint4_linear_122_130" x1="795.5" y1="149" x2="795.5" y2="460.381" gradientUnits="userSpaceOnUse">
<stop stop-color="#F7DD43"/>
<stop offset="1" stop-color="#F7DD43" stop-opacity="0"/>
</linearGradient>
<linearGradient id="paint5_linear_122_130" x1="795.5" y1="149" x2="795.5" y2="460.381" gradientUnits="userSpaceOnUse">
<stop stop-color="#F7DD43"/>
<stop offset="1" stop-color="#F7DD43" stop-opacity="0"/>
</linearGradient>
<linearGradient id="paint6_linear_122_130" x1="795.5" y1="149" x2="795.5" y2="460.381" gradientUnits="userSpaceOnUse">
<stop stop-color="#F7DD43"/>
<stop offset="1" stop-color="#F7DD43" stop-opacity="0"/>
</linearGradient>
<linearGradient id="paint7_linear_122_130" x1="795.5" y1="149" x2="795.5" y2="460.381" gradientUnits="userSpaceOnUse">
<stop stop-color="#F7DD43"/>
<stop offset="1" stop-color="#F7DD43" stop-opacity="0"/>
</linearGradient>
<linearGradient id="paint8_linear_122_130" x1="795.5" y1="149" x2="795.5" y2="460.381" gradientUnits="userSpaceOnUse">
<stop stop-color="#F7DD43"/>
<stop offset="1" stop-color="#F7DD43" stop-opacity="0"/>
</linearGradient>
<linearGradient id="paint9_linear_122_130" x1="795.5" y1="149" x2="795.5" y2="460.381" gradientUnits="userSpaceOnUse">
<stop stop-color="#F7DD43"/>
<stop offset="1" stop-color="#F7DD43" stop-opacity="0"/>
</linearGradient>
<linearGradient id="paint10_linear_122_130" x1="795.5" y1="149" x2="795.5" y2="460.381" gradientUnits="userSpaceOnUse">
<stop stop-color="#F7DD43"/>
<stop offset="1" stop-color="#F7DD43" stop-opacity="0"/>
</linearGradient>
<linearGradient id="paint11_linear_122_130" x1="795.5" y1="149" x2="795.5" y2="460.381" gradientUnits="userSpaceOnUse">
<stop stop-color="#F7DD43"/>
<stop offset="1" stop-color="#F7DD43" stop-opacity="0"/>
</linearGradient>
<linearGradient id="paint12_linear_122_130" x1="795.5" y1="149" x2="795.5" y2="460.381" gradientUnits="userSpaceOnUse">
<stop stop-color="#F7DD43"/>
<stop offset="1" stop-color="#F7DD43" stop-opacity="0"/>
</linearGradient>
<linearGradient id="paint13_linear_122_130" x1="795.5" y1="149" x2="795.5" y2="460.381" gradientUnits="userSpaceOnUse">
<stop stop-color="#F7DD43"/>
<stop offset="1" stop-color="#F7DD43" stop-opacity="0"/>
</linearGradient>
<linearGradient id="paint14_linear_122_130" x1="795.5" y1="149" x2="795.5" y2="460.381" gradientUnits="userSpaceOnUse">
<stop stop-color="#F7DD43"/>
<stop offset="1" stop-color="#F7DD43" stop-opacity="0"/>
</linearGradient>
<linearGradient id="paint15_linear_122_130" x1="795.5" y1="149" x2="795.5" y2="460.381" gradientUnits="userSpaceOnUse">
<stop stop-color="#F7DD43"/>
<stop offset="1" stop-color="#F7DD43" stop-opacity="0"/>
</linearGradient>
<linearGradient id="paint16_linear_122_130" x1="795.5" y1="149" x2="795.5" y2="460.381" gradientUnits="userSpaceOnUse">
<stop stop-color="#F7DD43"/>
<stop offset="1" stop-color="#F7DD43" stop-opacity="0"/>
</linearGradient>
<linearGradient id="paint17_linear_122_130" x1="795.5" y1="149" x2="795.5" y2="460.381" gradientUnits="userSpaceOnUse">
<stop stop-color="#F7DD43"/>
<stop offset="1" stop-color="#F7DD43" stop-opacity="0"/>
</linearGradient>
<linearGradient id="paint18_linear_122_130" x1="795.5" y1="149" x2="795.5" y2="460.381" gradientUnits="userSpaceOnUse">
<stop stop-color="#F7DD43"/>
<stop offset="1" stop-color="#F7DD43" stop-opacity="0"/>
</linearGradient>
<linearGradient id="paint19_linear_122_130" x1="795.5" y1="149" x2="795.5" y2="460.381" gradientUnits="userSpaceOnUse">
<stop stop-color="#F7DD43"/>
<stop offset="1" stop-color="#F7DD43" stop-opacity="0"/>
</linearGradient>
<linearGradient id="paint20_linear_122_130" x1="795.5" y1="149" x2="795.5" y2="460.381" gradientUnits="userSpaceOnUse">
<stop stop-color="#F7DD43"/>
<stop offset="1" stop-color="#F7DD43" stop-opacity="0"/>
</linearGradient>
<linearGradient id="paint21_linear_122_130" x1="795.5" y1="149" x2="795.5" y2="460.381" gradientUnits="userSpaceOnUse">
<stop stop-color="#F7DD43"/>
<stop offset="1" stop-color="#F7DD43" stop-opacity="0"/>
</linearGradient>
<linearGradient id="paint22_linear_122_130" x1="795.5" y1="149" x2="795.5" y2="460.381" gradientUnits="userSpaceOnUse">
<stop stop-color="#F7DD43"/>
<stop offset="1" stop-color="#F7DD43" stop-opacity="0"/>
</linearGradient>
<linearGradient id="paint23_linear_122_130" x1="795.5" y1="149" x2="795.5" y2="460.381" gradientUnits="userSpaceOnUse">
<stop stop-color="#F7DD43"/>
<stop offset="1" stop-color="#F7DD43" stop-opacity="0"/>
</linearGradient>
<linearGradient id="paint24_linear_122_130" x1="795.5" y1="149" x2="795.5" y2="460.381" gradientUnits="userSpaceOnUse">
<stop stop-color="#F7DD43"/>
<stop offset="1" stop-color="#F7DD43" stop-opacity="0"/>
</linearGradient>
<linearGradient id="paint25_linear_122_130" x1="795.5" y1="149" x2="795.5" y2="460.381" gradientUnits="userSpaceOnUse">
<stop stop-color="#F7DD43"/>
<stop offset="1" stop-color="#F7DD43" stop-opacity="0"/>
</linearGradient>
<linearGradient id="paint26_linear_122_130" x1="795.5" y1="149" x2="795.5" y2="460.381" gradientUnits="userSpaceOnUse">
<stop stop-color="#F7DD43"/>
<stop offset="1" stop-color="#F7DD43" stop-opacity="0"/>
</linearGradient>
<linearGradient id="paint27_linear_122_130" x1="795.5" y1="149" x2="795.5" y2="460.381" gradientUnits="userSpaceOnUse">
<stop stop-color="#F7DD43"/>
<stop offset="1" stop-color="#F7DD43" stop-opacity="0"/>
</linearGradient>
<linearGradient id="paint28_linear_122_130" x1="795.5" y1="149" x2="795.5" y2="460.381" gradientUnits="userSpaceOnUse">
<stop stop-color="#F7DD43"/>
<stop offset="1" stop-color="#F7DD43" stop-opacity="0"/>
</linearGradient>
<linearGradient id="paint29_linear_122_130" x1="795.5" y1="149" x2="795.5" y2="460.381" gradientUnits="userSpaceOnUse">
<stop stop-color="#F7DD43"/>
<stop offset="1" stop-color="#F7DD43" stop-opacity="0"/>
</linearGradient>
<linearGradient id="paint30_linear_122_130" x1="795.5" y1="149" x2="795.5" y2="460.381" gradientUnits="userSpaceOnUse">
<stop stop-color="#F7DD43"/>
<stop offset="1" stop-color="#F7DD43" stop-opacity="0"/>
</linearGradient>
<linearGradient id="paint31_linear_122_130" x1="795.5" y1="149" x2="795.5" y2="460.381" gradientUnits="userSpaceOnUse">
<stop stop-color="#F7DD43"/>
<stop offset="1" stop-color="#F7DD43" stop-opacity="0"/>
</linearGradient>
<linearGradient id="paint32_linear_122_130" x1="795.5" y1="149" x2="795.5" y2="460.381" gradientUnits="userSpaceOnUse">
<stop stop-color="#F7DD43"/>
<stop offset="1" stop-color="#F7DD43" stop-opacity="0"/>
</linearGradient>
<linearGradient id="paint33_linear_122_130" x1="795.5" y1="149" x2="795.5" y2="460.381" gradientUnits="userSpaceOnUse">
<stop stop-color="#F7DD43"/>
<stop offset="1" stop-color="#F7DD43" stop-opacity="0"/>
</linearGradient>
<linearGradient id="paint34_linear_122_130" x1="795.5" y1="149" x2="795.5" y2="460.381" gradientUnits="userSpaceOnUse">
<stop stop-color="#F7DD43"/>
<stop offset="1" stop-color="#F7DD43" stop-opacity="0"/>
</linearGradient>
<linearGradient id="paint35_linear_122_130" x1="795.5" y1="149" x2="795.5" y2="460.381" gradientUnits="userSpaceOnUse">
<stop stop-color="#F7DD43"/>
<stop offset="1" stop-color="#F7DD43" stop-opacity="0"/>
</linearGradient>
<linearGradient id="paint36_linear_122_130" x1="795.5" y1="149" x2="795.5" y2="460.381" gradientUnits="userSpaceOnUse">
<stop stop-color="#F7DD43"/>
<stop offset="1" stop-color="#F7DD43" stop-opacity="0"/>
</linearGradient>
<linearGradient id="paint37_linear_122_130" x1="795.5" y1="149" x2="795.5" y2="460.381" gradientUnits="userSpaceOnUse">
<stop stop-color="#F7DD43"/>
<stop offset="1" stop-color="#F7DD43" stop-opacity="0"/>
</linearGradient>
<linearGradient id="paint38_linear_122_130" x1="795.5" y1="149" x2="795.5" y2="460.381" gradientUnits="userSpaceOnUse">
<stop stop-color="#F7DD43"/>
<stop offset="1" stop-color="#F7DD43" stop-opacity="0"/>
</linearGradient>
<linearGradient id="paint39_linear_122_130" x1="795.5" y1="149" x2="795.5" y2="460.381" gradientUnits="userSpaceOnUse">
<stop stop-color="#F7DD43"/>
<stop offset="1" stop-color="#F7DD43" stop-opacity="0"/>
</linearGradient>
<linearGradient id="paint40_linear_122_130" x1="795.5" y1="149" x2="795.5" y2="460.381" gradientUnits="userSpaceOnUse">
<stop stop-color="#F7DD43"/>
<stop offset="1" stop-color="#F7DD43" stop-opacity="0"/>
</linearGradient>
<linearGradient id="paint41_linear_122_130" x1="795.5" y1="149" x2="795.5" y2="460.381" gradientUnits="userSpaceOnUse">
<stop stop-color="#F7DD43"/>
<stop offset="1" stop-color="#F7DD43" stop-opacity="0"/>
</linearGradient>
<linearGradient id="paint42_linear_122_130" x1="795.5" y1="149" x2="795.5" y2="460.381" gradientUnits="userSpaceOnUse">
<stop stop-color="#F7DD43"/>
<stop offset="1" stop-color="#F7DD43" stop-opacity="0"/>
</linearGradient>
<linearGradient id="paint43_linear_122_130" x1="795.5" y1="149" x2="795.5" y2="460.381" gradientUnits="userSpaceOnUse">
<stop stop-color="#F7DD43"/>
<stop offset="1" stop-color="#F7DD43" stop-opacity="0"/>
</linearGradient>
<linearGradient id="paint44_linear_122_130" x1="795.5" y1="149" x2="795.5" y2="460.381" gradientUnits="userSpaceOnUse">
<stop stop-color="#F7DD43"/>
<stop offset="1" stop-color="#F7DD43" stop-opacity="0"/>
</linearGradient>
<linearGradient id="paint45_linear_122_130" x1="795.5" y1="149" x2="795.5" y2="460.381" gradientUnits="userSpaceOnUse">
<stop stop-color="#F7DD43"/>
<stop offset="1" stop-color="#F7DD43" stop-opacity="0"/>
</linearGradient>
<linearGradient id="paint46_linear_122_130" x1="795.5" y1="149" x2="795.5" y2="460.381" gradientUnits="userSpaceOnUse">
<stop stop-color="#F7DD43"/>
<stop offset="1" stop-color="#F7DD43" stop-opacity="0"/>
</linearGradient>
<linearGradient id="paint47_linear_122_130" x1="182.5" y1="302" x2="182.5" y2="600.818" gradientUnits="userSpaceOnUse">
<stop stop-color="#F7DD43"/>
<stop offset="1" stop-color="#F7DD43" stop-opacity="0"/>
</linearGradient>
<linearGradient id="paint48_linear_122_130" x1="182.5" y1="302" x2="182.5" y2="600.818" gradientUnits="userSpaceOnUse">
<stop stop-color="#F7DD43"/>
<stop offset="1" stop-color="#F7DD43" stop-opacity="0"/>
</linearGradient>
<linearGradient id="paint49_linear_122_130" x1="182.5" y1="302" x2="182.5" y2="600.818" gradientUnits="userSpaceOnUse">
<stop stop-color="#F7DD43"/>
<stop offset="1" stop-color="#F7DD43" stop-opacity="0"/>
</linearGradient>
<linearGradient id="paint50_linear_122_130" x1="182.5" y1="302" x2="182.5" y2="600.818" gradientUnits="userSpaceOnUse">
<stop stop-color="#F7DD43"/>
<stop offset="1" stop-color="#F7DD43" stop-opacity="0"/>
</linearGradient>
<linearGradient id="paint51_linear_122_130" x1="182.5" y1="302" x2="182.5" y2="600.818" gradientUnits="userSpaceOnUse">
<stop stop-color="#F7DD43"/>
<stop offset="1" stop-color="#F7DD43" stop-opacity="0"/>
</linearGradient>
<linearGradient id="paint52_linear_122_130" x1="182.5" y1="302" x2="182.5" y2="600.818" gradientUnits="userSpaceOnUse">
<stop stop-color="#F7DD43"/>
<stop offset="1" stop-color="#F7DD43" stop-opacity="0"/>
</linearGradient>
<linearGradient id="paint53_linear_122_130" x1="182.5" y1="302" x2="182.5" y2="600.818" gradientUnits="userSpaceOnUse">
<stop stop-color="#F7DD43"/>
<stop offset="1" stop-color="#F7DD43" stop-opacity="0"/>
</linearGradient>
<linearGradient id="paint54_linear_122_130" x1="182.5" y1="302" x2="182.5" y2="600.818" gradientUnits="userSpaceOnUse">
<stop stop-color="#F7DD43"/>
<stop offset="1" stop-color="#F7DD43" stop-opacity="0"/>
</linearGradient>
<linearGradient id="paint55_linear_122_130" x1="182.5" y1="302" x2="182.5" y2="600.818" gradientUnits="userSpaceOnUse">
<stop stop-color="#F7DD43"/>
<stop offset="1" stop-color="#F7DD43" stop-opacity="0"/>
</linearGradient>
<linearGradient id="paint56_linear_122_130" x1="182.5" y1="302" x2="182.5" y2="600.818" gradientUnits="userSpaceOnUse">
<stop stop-color="#F7DD43"/>
<stop offset="1" stop-color="#F7DD43" stop-opacity="0"/>
</linearGradient>
<linearGradient id="paint57_linear_122_130" x1="182.5" y1="302" x2="182.5" y2="600.818" gradientUnits="userSpaceOnUse">
<stop stop-color="#F7DD43"/>
<stop offset="1" stop-color="#F7DD43" stop-opacity="0"/>
</linearGradient>
<linearGradient id="paint58_linear_122_130" x1="182.5" y1="302" x2="182.5" y2="600.818" gradientUnits="userSpaceOnUse">
<stop stop-color="#F7DD43"/>
<stop offset="1" stop-color="#F7DD43" stop-opacity="0"/>
</linearGradient>
<linearGradient id="paint59_linear_122_130" x1="182.5" y1="302" x2="182.5" y2="600.818" gradientUnits="userSpaceOnUse">
<stop stop-color="#F7DD43"/>
<stop offset="1" stop-color="#F7DD43" stop-opacity="0"/>
</linearGradient>
<linearGradient id="paint60_linear_122_130" x1="182.5" y1="302" x2="182.5" y2="600.818" gradientUnits="userSpaceOnUse">
<stop stop-color="#F7DD43"/>
<stop offset="1" stop-color="#F7DD43" stop-opacity="0"/>
</linearGradient>
<linearGradient id="paint61_linear_122_130" x1="182.5" y1="302" x2="182.5" y2="600.818" gradientUnits="userSpaceOnUse">
<stop stop-color="#F7DD43"/>
<stop offset="1" stop-color="#F7DD43" stop-opacity="0"/>
</linearGradient>
<linearGradient id="paint62_linear_122_130" x1="182.5" y1="302" x2="182.5" y2="600.818" gradientUnits="userSpaceOnUse">
<stop stop-color="#F7DD43"/>
<stop offset="1" stop-color="#F7DD43" stop-opacity="0"/>
</linearGradient>
<linearGradient id="paint63_linear_122_130" x1="182.5" y1="302" x2="182.5" y2="600.818" gradientUnits="userSpaceOnUse">
<stop stop-color="#F7DD43"/>
<stop offset="1" stop-color="#F7DD43" stop-opacity="0"/>
</linearGradient>
<linearGradient id="paint64_linear_122_130" x1="182.5" y1="302" x2="182.5" y2="600.818" gradientUnits="userSpaceOnUse">
<stop stop-color="#F7DD43"/>
<stop offset="1" stop-color="#F7DD43" stop-opacity="0"/>
</linearGradient>
<linearGradient id="paint65_linear_122_130" x1="182.5" y1="302" x2="182.5" y2="600.818" gradientUnits="userSpaceOnUse">
<stop stop-color="#F7DD43"/>
<stop offset="1" stop-color="#F7DD43" stop-opacity="0"/>
</linearGradient>
<linearGradient id="paint66_linear_122_130" x1="182.5" y1="302" x2="182.5" y2="600.818" gradientUnits="userSpaceOnUse">
<stop stop-color="#F7DD43"/>
<stop offset="1" stop-color="#F7DD43" stop-opacity="0"/>
</linearGradient>
<linearGradient id="paint67_linear_122_130" x1="182.5" y1="302" x2="182.5" y2="600.818" gradientUnits="userSpaceOnUse">
<stop stop-color="#F7DD43"/>
<stop offset="1" stop-color="#F7DD43" stop-opacity="0"/>
</linearGradient>
<linearGradient id="paint68_linear_122_130" x1="182.5" y1="302" x2="182.5" y2="600.818" gradientUnits="userSpaceOnUse">
<stop stop-color="#F7DD43"/>
<stop offset="1" stop-color="#F7DD43" stop-opacity="0"/>
</linearGradient>
<linearGradient id="paint69_linear_122_130" x1="182.5" y1="302" x2="182.5" y2="600.818" gradientUnits="userSpaceOnUse">
<stop stop-color="#F7DD43"/>
<stop offset="1" stop-color="#F7DD43" stop-opacity="0"/>
</linearGradient>
<linearGradient id="paint70_linear_122_130" x1="182.5" y1="302" x2="182.5" y2="600.818" gradientUnits="userSpaceOnUse">
<stop stop-color="#F7DD43"/>
<stop offset="1" stop-color="#F7DD43" stop-opacity="0"/>
</linearGradient>
<linearGradient id="paint71_linear_122_130" x1="182.5" y1="302" x2="182.5" y2="600.818" gradientUnits="userSpaceOnUse">
<stop stop-color="#F7DD43"/>
<stop offset="1" stop-color="#F7DD43" stop-opacity="0"/>
</linearGradient>
<linearGradient id="paint72_linear_122_130" x1="182.5" y1="302" x2="182.5" y2="600.818" gradientUnits="userSpaceOnUse">
<stop stop-color="#F7DD43"/>
<stop offset="1" stop-color="#F7DD43" stop-opacity="0"/>
</linearGradient>
<linearGradient id="paint73_linear_122_130" x1="182.5" y1="302" x2="182.5" y2="600.818" gradientUnits="userSpaceOnUse">
<stop stop-color="#F7DD43"/>
<stop offset="1" stop-color="#F7DD43" stop-opacity="0"/>
</linearGradient>
<linearGradient id="paint74_linear_122_130" x1="182.5" y1="302" x2="182.5" y2="600.818" gradientUnits="userSpaceOnUse">
<stop stop-color="#F7DD43"/>
<stop offset="1" stop-color="#F7DD43" stop-opacity="0"/>
</linearGradient>
<linearGradient id="paint75_linear_122_130" x1="182.5" y1="302" x2="182.5" y2="600.818" gradientUnits="userSpaceOnUse">
<stop stop-color="#F7DD43"/>
<stop offset="1" stop-color="#F7DD43" stop-opacity="0"/>
</linearGradient>
<linearGradient id="paint76_linear_122_130" x1="182.5" y1="302" x2="182.5" y2="600.818" gradientUnits="userSpaceOnUse">
<stop stop-color="#F7DD43"/>
<stop offset="1" stop-color="#F7DD43" stop-opacity="0"/>
</linearGradient>
<linearGradient id="paint77_linear_122_130" x1="182.5" y1="302" x2="182.5" y2="600.818" gradientUnits="userSpaceOnUse">
<stop stop-color="#F7DD43"/>
<stop offset="1" stop-color="#F7DD43" stop-opacity="0"/>
</linearGradient>
<linearGradient id="paint78_linear_122_130" x1="182.5" y1="302" x2="182.5" y2="600.818" gradientUnits="userSpaceOnUse">
<stop stop-color="#F7DD43"/>
<stop offset="1" stop-color="#F7DD43" stop-opacity="0"/>
</linearGradient>
<linearGradient id="paint79_linear_122_130" x1="182.5" y1="302" x2="182.5" y2="600.818" gradientUnits="userSpaceOnUse">
<stop stop-color="#F7DD43"/>
<stop offset="1" stop-color="#F7DD43" stop-opacity="0"/>
</linearGradient>
<linearGradient id="paint80_linear_122_130" x1="182.5" y1="302" x2="182.5" y2="600.818" gradientUnits="userSpaceOnUse">
<stop stop-color="#F7DD43"/>
<stop offset="1" stop-color="#F7DD43" stop-opacity="0"/>
</linearGradient>
<linearGradient id="paint81_linear_122_130" x1="182.5" y1="302" x2="182.5" y2="600.818" gradientUnits="userSpaceOnUse">
<stop stop-color="#F7DD43"/>
<stop offset="1" stop-color="#F7DD43" stop-opacity="0"/>
</linearGradient>
<linearGradient id="paint82_linear_122_130" x1="182.5" y1="302" x2="182.5" y2="600.818" gradientUnits="userSpaceOnUse">
<stop stop-color="#F7DD43"/>
<stop offset="1" stop-color="#F7DD43" stop-opacity="0"/>
</linearGradient>
<linearGradient id="paint83_linear_122_130" x1="182.5" y1="302" x2="182.5" y2="600.818" gradientUnits="userSpaceOnUse">
<stop stop-color="#F7DD43"/>
<stop offset="1" stop-color="#F7DD43" stop-opacity="0"/>
</linearGradient>
<linearGradient id="paint84_linear_122_130" x1="182.5" y1="302" x2="182.5" y2="600.818" gradientUnits="userSpaceOnUse">
<stop stop-color="#F7DD43"/>
<stop offset="1" stop-color="#F7DD43" stop-opacity="0"/>
</linearGradient>
<linearGradient id="paint85_linear_122_130" x1="182.5" y1="302" x2="182.5" y2="600.818" gradientUnits="userSpaceOnUse">
<stop stop-color="#F7DD43"/>
<stop offset="1" stop-color="#F7DD43" stop-opacity="0"/>
</linearGradient>
<linearGradient id="paint86_linear_122_130" x1="182.5" y1="302" x2="182.5" y2="600.818" gradientUnits="userSpaceOnUse">
<stop stop-color="#F7DD43"/>
<stop offset="1" stop-color="#F7DD43" stop-opacity="0"/>
</linearGradient>
<linearGradient id="paint87_linear_122_130" x1="182.5" y1="302" x2="182.5" y2="600.818" gradientUnits="userSpaceOnUse">
<stop stop-color="#F7DD43"/>
<stop offset="1" stop-color="#F7DD43" stop-opacity="0"/>
</linearGradient>
<linearGradient id="paint88_linear_122_130" x1="182.5" y1="302" x2="182.5" y2="600.818" gradientUnits="userSpaceOnUse">
<stop stop-color="#F7DD43"/>
<stop offset="1" stop-color="#F7DD43" stop-opacity="0"/>
</linearGradient>
<linearGradient id="paint89_linear_122_130" x1="182.5" y1="302" x2="182.5" y2="600.818" gradientUnits="userSpaceOnUse">
<stop stop-color="#F7DD43"/>
<stop offset="1" stop-color="#F7DD43" stop-opacity="0"/>
</linearGradient>
<linearGradient id="paint90_linear_122_130" x1="182.5" y1="302" x2="182.5" y2="600.818" gradientUnits="userSpaceOnUse">
<stop stop-color="#F7DD43"/>
<stop offset="1" stop-color="#F7DD43" stop-opacity="0"/>
</linearGradient>
<linearGradient id="paint91_linear_122_130" x1="182.5" y1="302" x2="182.5" y2="600.818" gradientUnits="userSpaceOnUse">
<stop stop-color="#F7DD43"/>
<stop offset="1" stop-color="#F7DD43" stop-opacity="0"/>
</linearGradient>
<linearGradient id="paint92_linear_122_130" x1="182.5" y1="302" x2="182.5" y2="600.818" gradientUnits="userSpaceOnUse">
<stop stop-color="#F7DD43"/>
<stop offset="1" stop-color="#F7DD43" stop-opacity="0"/>
</linearGradient>
<linearGradient id="paint93_linear_122_130" x1="182.5" y1="302" x2="182.5" y2="600.818" gradientUnits="userSpaceOnUse">
<stop stop-color="#F7DD43"/>
<stop offset="1" stop-color="#F7DD43" stop-opacity="0"/>
</linearGradient>
<clipPath id="clip0_122_130">
<rect width="1024" height="753" fill="white"/>
</clipPath>
</defs>
</svg>
