<svg width="50" height="51" viewBox="0 0 50 51" fill="none" xmlns="http://www.w3.org/2000/svg">
<g clip-path="url(#clip0_402_253)">
<path d="M25 50.4693C38.8071 50.4693 50 39.2764 50 25.4693C50 11.6622 38.8071 0.469299 25 0.469299C11.1929 0.469299 0 11.6622 0 25.4693C0 39.2764 11.1929 50.4693 25 50.4693Z" fill="#6DA544"/>
<path d="M25 10.2519L45.6521 25.4693L25 40.6867L4.34784 25.4693L25 10.2519Z" fill="#FFDA44"/>
<path d="M25 34.1649C29.8024 34.1649 33.6956 30.2717 33.6956 25.4693C33.6956 20.6668 29.8024 16.7737 25 16.7737C20.1975 16.7737 16.3044 20.6668 16.3044 25.4693C16.3044 30.2717 20.1975 34.1649 25 34.1649Z" fill="#F0F0F0"/>
<path d="M20.6521 24.9258C19.14 24.9258 17.6808 25.1558 16.3071 25.5826C16.368 30.3326 20.2355 34.165 25 34.165C27.9461 34.165 30.548 32.6985 32.121 30.4572C29.4299 27.0883 25.2892 24.9258 20.6521 24.9258V24.9258Z" fill="#0052B4"/>
<path d="M33.5345 27.1353C33.6392 26.5959 33.6957 26.0393 33.6957 25.4693C33.6957 20.6667 29.8025 16.7737 25.0001 16.7737C21.4167 16.7737 18.3405 18.9417 17.0093 22.0373C18.186 21.7934 19.4044 21.665 20.6523 21.665C25.7028 21.6649 30.2718 23.7643 33.5345 27.1353V27.1353Z" fill="#0052B4"/>
</g>
<defs>
<clipPath id="clip0_402_253">
<rect width="50" height="50" fill="white" transform="translate(0 0.469299)"/>
</clipPath>
</defs>
</svg>
