<svg width="249" height="67" viewBox="0 0 249 67" fill="none" xmlns="http://www.w3.org/2000/svg">
<path fill-rule="evenodd" clip-rule="evenodd" d="M81.5126 9.2816V7.20316L75.767 9.33873H75.7561V11.4716H75.767L81.5126 13.6072V11.526L78.5664 10.3997L81.5126 9.27888V9.2816Z" fill="#F7DD43"/>
<path fill-rule="evenodd" clip-rule="evenodd" d="M114.792 13.5037V11.4253L117.736 10.3072L114.792 9.18905V7.1106L120.53 9.24618H120.543V11.3817H120.53L114.792 13.5064V13.5037ZM112.327 4.16977L108.954 15H110.956L114.33 4.16977H112.327Z" fill="#F7DD43"/>
<path fill-rule="evenodd" clip-rule="evenodd" d="M89.9544 6.91747C90.5257 7.54317 90.8249 8.3702 90.7896 9.21627V13.8302H88.7873V9.64066C88.8118 9.17274 88.6621 8.7157 88.3683 8.35116C88.0908 8.02742 87.6801 7.84787 87.2529 7.86691C85.9988 7.86691 85.3704 8.73746 85.3704 10.4758V13.8302H83.3681V6.25639H85.3704V6.93923C86.007 6.32168 86.8694 5.99251 87.7562 6.03059C88.5833 5.99523 89.3831 6.31896 89.9544 6.91747V6.91747Z" fill="#F7DD43"/>
<path fill-rule="evenodd" clip-rule="evenodd" d="M93.3413 3V13.8302H95.3436V3H93.3413Z" fill="#F7DD43"/>
<path fill-rule="evenodd" clip-rule="evenodd" d="M106.666 13.8302H104.996L103.358 9.36862L101.704 13.8302H100.034L97.2261 6.2428H99.3671L100.945 10.7806L102.572 6.2428H104.136L105.763 10.7942L107.341 6.2428H109.482L106.672 13.8302H106.666Z" fill="#F7DD43"/>
<path d="M130.08 17.9981C128.153 17.9981 126.129 17.6331 124.543 16.754V1.24411C126.105 0.389878 128.128 2.85548e-05 130.08 2.85548e-05C132.031 2.85548e-05 134.007 0.365035 135.566 1.24411V7.19505H131.639V3.14558C131.176 2.95066 130.615 2.87804 130.055 2.87804C129.495 2.87804 128.981 2.95066 128.493 3.14558V14.8525C128.956 15.0475 129.493 15.1201 130.055 15.1201C130.617 15.1201 131.152 15.0475 131.639 14.8525V10.805H135.566V16.7559C134.03 17.6102 132.006 17.9752 130.08 18V17.9981Z" fill="#F7DD43"/>
<path d="M142.931 17.9981C140.858 17.9981 138.859 17.5585 137.273 16.6565V1.3167C138.834 0.439536 140.835 0 142.931 0C145.028 0 146.979 0.414693 148.54 1.3167V16.6565C147.004 17.5585 144.98 17.9732 142.931 17.9981ZM144.615 3.19524C144.152 3.00031 143.591 2.90285 142.908 2.90285C142.226 2.90285 141.689 3.00031 141.225 3.19524V14.7799C141.687 14.9997 142.249 15.0971 142.908 15.0971C143.568 15.0971 144.128 14.9997 144.615 14.7799V3.19524Z" fill="#F7DD43"/>
<path d="M155.393 11.4127H154.344V17.7783H150.369V0.219779H155.393C157.784 0.219779 159.588 0.707092 161.002 1.70656V9.92589C159.613 10.9024 157.782 11.4127 155.393 11.4127ZM157.052 3.24303C156.687 2.97548 156.198 2.85318 155.368 2.85318H154.294V8.77927H155.368C156.173 8.77927 156.66 8.65697 157.052 8.41427V3.24303Z" fill="#F7DD43"/>
<path d="M169.317 17.7783V11.4127H166.391V17.7783H162.441V1.29185C163.88 0.437625 165.904 0 167.855 0C169.806 0 171.805 0.439537 173.244 1.29185V17.7783H169.317ZM169.317 3.04809C168.902 2.85316 168.39 2.7557 167.853 2.7557C167.316 2.7557 166.804 2.85316 166.389 3.04809V8.63211H169.315V3.04809H169.317Z" fill="#F7DD43"/>
<path d="M47.7129 47.9248H52.0928C52.0049 49.3604 51.6094 50.6348 50.9062 51.748C50.2129 52.8613 49.2412 53.7305 47.9912 54.3555C46.751 54.9805 45.2568 55.293 43.5088 55.293C42.1416 55.293 40.916 55.0586 39.832 54.5898C38.748 54.1113 37.8203 53.4277 37.0488 52.5391C36.2871 51.6504 35.7061 50.5762 35.3057 49.3164C34.9053 48.0566 34.7051 46.6455 34.7051 45.083V43.6035C34.7051 42.041 34.9102 40.6299 35.3203 39.3701C35.7402 38.1006 36.3359 37.0215 37.1074 36.1328C37.8887 35.2441 38.8213 34.5605 39.9053 34.082C40.9893 33.6035 42.2002 33.3643 43.5381 33.3643C45.3154 33.3643 46.8145 33.6865 48.0352 34.3311C49.2656 34.9756 50.2178 35.8643 50.8916 36.9971C51.5752 38.1299 51.9854 39.4189 52.1221 40.8643H47.7275C47.6787 40.0049 47.5078 39.2773 47.2148 38.6816C46.9219 38.0762 46.4775 37.6221 45.8818 37.3193C45.2959 37.0068 44.5146 36.8506 43.5381 36.8506C42.8057 36.8506 42.166 36.9873 41.6191 37.2607C41.0723 37.5342 40.6133 37.9492 40.2422 38.5059C39.8711 39.0625 39.5928 39.7656 39.4072 40.6152C39.2314 41.4551 39.1436 42.4414 39.1436 43.5742V45.083C39.1436 46.1865 39.2266 47.1582 39.3926 47.998C39.5586 48.8281 39.8125 49.5312 40.1543 50.1074C40.5059 50.6738 40.9551 51.1035 41.502 51.3965C42.0586 51.6797 42.7275 51.8213 43.5088 51.8213C44.4268 51.8213 45.1836 51.6748 45.7793 51.3818C46.375 51.0889 46.8291 50.6543 47.1416 50.0781C47.4639 49.502 47.6543 48.7842 47.7129 47.9248ZM63.6504 37.3193L57.8496 55H53.1768L61.1016 33.6719H64.0752L63.6504 37.3193ZM68.4697 55L62.6543 37.3193L62.1855 33.6719H65.1885L73.1572 55H68.4697ZM68.2061 47.0605V50.5029H56.9414V47.0605H68.2061ZM88.8457 51.5723V55H78.1084V51.5723H88.8457ZM79.5293 33.6719V55H75.1348V33.6719H79.5293ZM105.677 51.5723V55H94.3242V51.5723H105.677ZM95.7598 33.6719V55H91.3652V33.6719H95.7598ZM104.197 42.3584V45.6982H94.3242V42.3584H104.197ZM105.662 33.6719V37.1143H94.3242V33.6719H105.662ZM125.599 33.6719V55H121.204L112.635 40.7031V55H108.24V33.6719H112.635L121.219 47.9834V33.6719H125.599ZM135.97 55H131.326L131.355 51.5723H135.97C137.122 51.5723 138.094 51.3135 138.885 50.7959C139.676 50.2686 140.271 49.502 140.672 48.4961C141.082 47.4902 141.287 46.2744 141.287 44.8486V43.8086C141.287 42.7148 141.17 41.7529 140.936 40.9229C140.711 40.0928 140.374 39.3945 139.925 38.8281C139.476 38.2617 138.924 37.8369 138.27 37.5537C137.615 37.2607 136.863 37.1143 136.014 37.1143H131.238V33.6719H136.014C137.439 33.6719 138.743 33.916 139.925 34.4043C141.116 34.8828 142.146 35.5713 143.016 36.4697C143.885 37.3682 144.554 38.4424 145.022 39.6924C145.501 40.9326 145.74 42.3145 145.74 43.8379V44.8486C145.74 46.3623 145.501 47.7441 145.022 48.9941C144.554 50.2441 143.885 51.3184 143.016 52.2168C142.156 53.1055 141.126 53.7939 139.925 54.2822C138.733 54.7607 137.415 55 135.97 55ZM133.816 33.6719V55H129.422V33.6719H133.816ZM157.283 37.3193L151.482 55H146.81L154.734 33.6719H157.708L157.283 37.3193ZM162.103 55L156.287 37.3193L155.818 33.6719H158.821L166.79 55H162.103ZM161.839 47.0605V50.5029H150.574V47.0605H161.839ZM154.808 32.4707L157.679 27.959H162.264L158.235 32.4707H154.808ZM168.768 33.6719H176.722C178.353 33.6719 179.754 33.916 180.926 34.4043C182.107 34.8926 183.016 35.6152 183.65 36.5723C184.285 37.5293 184.603 38.7061 184.603 40.1025C184.603 41.2451 184.407 42.2266 184.017 43.0469C183.636 43.8574 183.094 44.5361 182.391 45.083C181.697 45.6201 180.882 46.0498 179.944 46.3721L178.553 47.1045H171.639L171.609 43.6768H176.751C177.522 43.6768 178.162 43.54 178.67 43.2666C179.178 42.9932 179.559 42.6123 179.812 42.124C180.076 41.6357 180.208 41.0693 180.208 40.4248C180.208 39.7412 180.081 39.1504 179.827 38.6523C179.573 38.1543 179.188 37.7734 178.67 37.5098C178.152 37.2461 177.503 37.1143 176.722 37.1143H173.162V55H168.768V33.6719ZM180.691 55L175.828 45.4932L180.472 45.4639L185.394 54.7949V55H180.691ZM192.659 33.6719V55H188.279V33.6719H192.659ZM214.295 43.8379V44.8486C214.295 46.4697 214.075 47.9248 213.636 49.2139C213.196 50.5029 212.576 51.6016 211.775 52.5098C210.975 53.4082 210.018 54.0967 208.904 54.5752C207.801 55.0537 206.575 55.293 205.228 55.293C203.89 55.293 202.664 55.0537 201.551 54.5752C200.447 54.0967 199.49 53.4082 198.68 52.5098C197.869 51.6016 197.239 50.5029 196.79 49.2139C196.351 47.9248 196.131 46.4697 196.131 44.8486V43.8379C196.131 42.207 196.351 40.752 196.79 39.4727C197.229 38.1836 197.85 37.085 198.65 36.1768C199.461 35.2686 200.418 34.5752 201.521 34.0967C202.635 33.6182 203.86 33.3789 205.198 33.3789C206.546 33.3789 207.771 33.6182 208.875 34.0967C209.988 34.5752 210.945 35.2686 211.746 36.1768C212.557 37.085 213.182 38.1836 213.621 39.4727C214.07 40.752 214.295 42.207 214.295 43.8379ZM209.856 44.8486V43.8086C209.856 42.6758 209.754 41.6797 209.549 40.8203C209.344 39.9609 209.041 39.2383 208.641 38.6523C208.24 38.0664 207.752 37.627 207.176 37.334C206.6 37.0312 205.94 36.8799 205.198 36.8799C204.456 36.8799 203.797 37.0312 203.221 37.334C202.654 37.627 202.171 38.0664 201.771 38.6523C201.38 39.2383 201.082 39.9609 200.877 40.8203C200.672 41.6797 200.569 42.6758 200.569 43.8086V44.8486C200.569 45.9717 200.672 46.9678 200.877 47.8369C201.082 48.6963 201.385 49.4238 201.785 50.0195C202.186 50.6055 202.674 51.0498 203.25 51.3525C203.826 51.6553 204.485 51.8066 205.228 51.8066C205.97 51.8066 206.629 51.6553 207.205 51.3525C207.781 51.0498 208.265 50.6055 208.655 50.0195C209.046 49.4238 209.344 48.6963 209.549 47.8369C209.754 46.9678 209.856 45.9717 209.856 44.8486Z" fill="url(#paint0_linear_122_239)"/>
<defs>
<linearGradient id="paint0_linear_122_239" x1="124.5" y1="26" x2="124.5" y2="64" gradientUnits="userSpaceOnUse">
<stop stop-color="white"/>
<stop offset="1" stop-color="#D9D9D9" stop-opacity="0.8"/>
</linearGradient>
</defs>
</svg>


